<?xml version="1.0" encoding="utf-8"?>
<!-- Generator: Adobe Illustrator 27.5.0, SVG Export Plug-In . SVG Version: 6.00 Build 0)  -->
<svg version="1.1" xmlns="http://www.w3.org/2000/svg" xmlns:xlink="http://www.w3.org/1999/xlink" x="0px" y="0px"
	 viewBox="0 0 500 500" style="enable-background:new 0 0 500 500;" xml:space="preserve">
<g id="Background_Complete">
	<g>
		<g>
			<g>
				<g>
					<polygon style="fill:#EBEBEB;" points="134.513,193.642 134.513,201.139 142.009,201.139 142.009,193.642 142.009,186.146 
						134.513,186.146 					"/>
				</g>
			</g>
			<g>
				<g>
					<rect x="134.513" y="148.666" style="fill:#EBEBEB;" width="7.496" height="7.496"/>
				</g>
			</g>
			<g>
				<g>
					<rect x="180.835" y="231.199" style="fill:#EBEBEB;" width="7.496" height="7.496"/>
				</g>
			</g>
			<g>
				<g>
					<polygon style="fill:#EBEBEB;" points="142.009,163.658 142.009,171.154 134.513,171.154 134.513,178.65 142.009,178.65 
						142.009,186.146 149.506,186.146 157.002,186.146 157.002,193.642 164.498,193.642 164.498,186.146 171.994,186.146 
						171.994,178.65 171.994,171.154 164.498,171.154 164.498,178.65 157.002,178.65 149.506,178.65 149.506,171.154 
						149.506,163.658 149.506,156.162 142.009,156.162 					"/>
				</g>
			</g>
			<g>
				<g>
					<polygon style="fill:#EBEBEB;" points="157.002,148.666 149.506,148.666 149.506,156.162 157.002,156.162 164.498,156.162 
						164.498,148.666 					"/>
				</g>
			</g>
			<g>
				<g>
					<polygon style="fill:#EBEBEB;" points="190.734,208.927 194.762,208.927 194.762,201.431 190.734,201.431 186.707,201.431 
						186.707,208.927 					"/>
				</g>
			</g>
			<g>
				<g>
					<rect x="164.498" y="156.162" style="fill:#EBEBEB;" width="7.496" height="7.496"/>
				</g>
			</g>
			<g>
				<g>
					<rect x="216.971" y="186.146" style="fill:#EBEBEB;" width="7.496" height="7.496"/>
				</g>
			</g>
			<g>
				<g>
					<rect x="224.467" y="103.689" style="fill:#EBEBEB;" width="7.496" height="7.496"/>
				</g>
			</g>
			<g>
				<g>
					<polygon style="fill:#EBEBEB;" points="186.986,163.658 186.986,156.162 194.482,156.162 194.482,148.666 186.986,148.666 
						186.986,141.17 179.49,141.17 179.49,148.666 171.994,148.666 171.994,156.162 179.49,156.162 179.49,163.658 179.49,171.154 
						179.49,178.65 179.49,186.146 186.986,186.146 186.986,178.65 186.986,171.154 194.482,171.154 194.482,163.658 					"/>
				</g>
			</g>
			<g>
				<g>
					<polygon style="fill:#EBEBEB;" points="224.467,238.619 231.963,238.619 231.963,231.123 224.467,231.123 216.971,231.123 
						216.971,238.619 					"/>
				</g>
			</g>
			<g>
				<g>
					<rect x="209.475" y="103.689" style="fill:#EBEBEB;" width="7.496" height="7.496"/>
				</g>
			</g>
			<g>
				<g>
					<polygon style="fill:#EBEBEB;" points="215.097,163.658 215.097,156.162 207.601,156.162 207.601,148.666 200.104,148.666 
						200.104,156.162 200.104,163.658 192.608,163.658 192.608,171.154 200.104,171.154 207.601,171.154 207.601,163.658 					"/>
				</g>
			</g>
			<g>
				<g>
					<rect x="249.911" y="148.666" style="fill:#EBEBEB;" width="7.496" height="7.496"/>
				</g>
			</g>
			<g>
				<g>
					<rect x="172.21" y="186.146" style="fill:#EBEBEB;" width="7.496" height="7.496"/>
				</g>
			</g>
			<g>
				<g>
					<polygon style="fill:#EBEBEB;" points="209.475,141.17 209.475,133.674 216.971,133.674 216.971,126.177 224.467,126.177 
						231.963,126.177 231.963,118.681 224.467,118.681 224.467,111.185 216.971,111.185 216.971,118.681 209.475,118.681 
						209.475,126.177 201.979,126.177 201.979,133.674 194.483,133.674 194.483,141.17 201.979,141.17 					"/>
				</g>
			</g>
			<g>
				<g>
					<polygon style="fill:#EBEBEB;" points="209.475,193.642 209.475,186.146 216.971,186.146 216.971,178.65 209.475,178.65 
						201.979,178.65 201.979,186.146 194.482,186.146 194.482,193.642 201.979,193.642 					"/>
				</g>
			</g>
			<g>
				<g>
					<polygon style="fill:#EBEBEB;" points="231.963,223.623 231.963,216.127 224.467,216.127 216.971,216.127 216.971,208.631 
						209.475,208.631 209.475,216.127 201.979,216.127 201.979,223.623 194.482,223.623 186.986,223.623 186.986,231.119 
						194.482,231.119 201.979,231.119 209.475,231.119 209.475,223.623 216.971,223.623 216.971,231.119 224.467,231.119 
						224.467,223.623 					"/>
				</g>
			</g>
			<g>
				<g>
					<polygon style="fill:#EBEBEB;" points="201.979,111.185 201.979,103.689 194.483,103.689 186.986,103.689 186.986,111.185 
						179.49,111.185 179.49,118.681 186.986,118.681 194.483,118.681 194.483,111.185 					"/>
				</g>
			</g>
			<g>
				<g>
					<rect x="194.483" y="118.681" style="fill:#EBEBEB;" width="7.496" height="7.496"/>
				</g>
			</g>
			<g>
				<g>
					<polygon style="fill:#EBEBEB;" points="220.719,148.666 213.223,148.666 213.223,156.162 213.223,163.658 213.223,171.154 
						220.719,171.154 228.215,171.154 228.215,163.658 220.719,163.658 220.719,156.162 228.215,156.162 228.215,148.666 
						235.711,148.666 235.711,141.17 228.215,141.17 228.215,133.674 220.719,133.674 220.719,141.17 					"/>
				</g>
			</g>
			<g>
				<g>
					<rect x="186.986" y="126.177" style="fill:#EBEBEB;" width="7.496" height="7.496"/>
				</g>
			</g>
			<g>
				<g>
					<polygon style="fill:#EBEBEB;" points="216.971,201.139 216.971,208.635 224.467,208.635 231.963,208.635 231.963,201.139 
						239.459,201.139 246.955,201.139 246.955,193.642 239.459,193.642 231.963,193.642 224.467,193.642 224.467,201.139 					"/>
				</g>
			</g>
			<g>
				<g>
					<rect x="249.911" y="171.154" style="fill:#EBEBEB;" width="7.496" height="7.496"/>
				</g>
			</g>
			<g>
				<g>
					<rect x="224.467" y="178.65" style="fill:#EBEBEB;" width="7.496" height="7.496"/>
				</g>
			</g>
			<g>
				<g>
					<polygon style="fill:#EBEBEB;" points="250.703,156.162 243.207,156.162 235.711,156.162 235.711,163.658 243.207,163.658 
						243.207,171.154 250.703,171.154 250.703,163.658 					"/>
				</g>
			</g>
			<g>
				<g>
					<rect x="239.459" y="178.65" style="fill:#EBEBEB;" width="7.496" height="7.496"/>
				</g>
			</g>
			<g>
				<g>
					<path style="fill:#EBEBEB;" d="M164.498,223.767h22.497v-30.133h-30.133v7.505h-7.355v7.496h7.355v7.496h-7.355v7.496h7.355
						v0.14h0.141v7.356h-7.496v7.496v7.496h7.496v-7.496h7.496v-7.496V223.767z M181.224,199.405v18.74h-18.74v-18.74H181.224z"/>
				</g>
			</g>
			<g>
				<g>
					<polygon style="fill:#EBEBEB;" points="261.947,193.642 269.444,193.642 269.444,186.146 261.947,186.146 254.451,186.146 
						246.955,186.146 246.955,193.642 254.451,193.642 					"/>
				</g>
			</g>
			<g>
				<g>
					<polygon style="fill:#EBEBEB;" points="261.947,163.658 269.444,163.658 269.444,156.162 269.444,148.666 261.947,148.666 
						261.947,156.162 					"/>
				</g>
			</g>
			<g>
				<g>
					<polygon style="fill:#EBEBEB;" points="202.258,201.431 194.762,201.431 194.762,208.927 194.762,216.423 202.258,216.423 
						202.258,208.927 					"/>
				</g>
			</g>
			<g>
				<g>
					<rect x="269.444" y="193.642" style="fill:#EBEBEB;" width="7.496" height="7.496"/>
				</g>
			</g>
			<g>
				<g>
					<polygon style="fill:#EBEBEB;" points="276.94,178.65 276.94,171.154 269.444,171.154 269.444,178.65 269.444,186.146 
						276.94,186.146 					"/>
				</g>
			</g>
			<g>
				<g>
					<polygon style="fill:#EBEBEB;" points="142.01,231.123 134.513,231.123 134.513,238.619 134.513,246.115 142.01,246.115 
						142.01,238.619 					"/>
				</g>
			</g>
			<g>
				<g>
					<path style="fill:#EBEBEB;" d="M276.94,141.17v-37.481h-37.48v37.481H276.94z M245.081,135.548v-26.237h26.236v26.237H245.081z
						"/>
				</g>
			</g>
			<g>
				<g>
					<rect x="250.703" y="114.933" style="fill:#EBEBEB;" width="14.992" height="14.992"/>
				</g>
			</g>
			<g>
				<g>
					<path style="fill:#EBEBEB;" d="M276.94,208.635h-37.48v37.481h37.48V208.635z M245.081,240.493v-26.237h26.236v26.237H245.081z
						"/>
				</g>
			</g>
			<g>
				<g>
					<rect x="250.703" y="219.879" style="fill:#EBEBEB;" width="14.992" height="14.992"/>
				</g>
			</g>
			<g>
				<g>
					<path style="fill:#EBEBEB;" d="M134.42,103.689v37.481H171.9v-37.481H134.42z M166.278,109.311v26.237h-26.236v-26.237H166.278
						z"/>
				</g>
			</g>
			<g>
				<g>
					<rect x="145.664" y="114.933" style="fill:#EBEBEB;" width="14.992" height="14.992"/>
				</g>
			</g>
		</g>
	</g>
	<g>
		<g>
			<g>
				<g>
					<path style="fill:#EBEBEB;" d="M74.61,250.499c-0.009,1.96-1.605,3.541-3.565,3.532c-1.96-0.009-3.541-1.605-3.532-3.565
						c0.009-1.96,1.605-3.541,3.565-3.532C73.037,246.943,74.619,248.539,74.61,250.499z"/>
				</g>
				<g>
					<g>
						<path style="fill:#EBEBEB;" d="M63.969,245.938c3.897-4.092,10.23-4.216,14.227-0.188c1.811,1.826,4.647-0.983,2.835-2.809
							c-5.484-5.527-14.485-5.494-19.871,0.162C59.39,244.962,62.194,247.802,63.969,245.938L63.969,245.938z"/>
					</g>
				</g>
				<g>
					<g>
						<path style="fill:#EBEBEB;" d="M51.917,229.421c5.396-4.665,11.837-7.601,19.05-7.618c7.149-0.018,14.199,2.52,19.435,7.437
							c1.871,1.757,4.712-1.046,2.835-2.809c-5.998-5.633-14.042-8.64-22.252-8.62c-8.3,0.021-15.677,3.413-21.878,8.774
							C47.161,228.268,49.981,231.095,51.917,229.421L51.917,229.421z"/>
					</g>
				</g>
				<g>
					<g>
						<path style="fill:#EBEBEB;" d="M56.673,238.574c3.617-3.911,8.687-6.36,14.044-6.482c5.504-0.126,10.817,2.141,14.643,6.072
							c1.795,1.843,4.629-0.966,2.835-2.809c-4.528-4.652-10.944-7.403-17.46-7.254c-6.373,0.146-12.549,2.964-16.872,7.638
							C52.123,237.621,54.925,240.465,56.673,238.574L56.673,238.574z"/>
					</g>
				</g>
			</g>
		</g>
	</g>
	<g>
		<g>
			<path style="fill:#EBEBEB;" d="M228.101,56.435c0.604-4.387-5.588-7.996-10.24-8.371c-2.219-0.179-4.523,0.16-6.625-0.572
				c-4.554-1.587-6.373-7.471-10.817-9.345c-3.322-1.401-7.147-0.154-10.367,1.467c-3.221,1.621-6.403,3.661-10.001,3.891
				c-3.13,0.2-6.528-0.96-9.267,0.569c-2.04,1.139-3.109,3.49-4.99,4.878c-1.84,1.357-4.24,1.645-6.523,1.769
				c-2.283,0.124-4.646,0.147-6.725,1.099c-2.079,0.952-3.798,3.15-3.367,5.395L228.101,56.435z"/>
		</g>
	</g>
	<g>
		<g>
			<path style="fill:#F5F5F5;" d="M108.643,130.549c0.541-3.933-5.009-7.168-9.179-7.504c-1.989-0.16-4.055,0.144-5.939-0.513
				c-4.082-1.423-5.713-6.697-9.696-8.377c-2.978-1.256-6.406-0.138-9.293,1.315c-2.887,1.453-5.74,3.282-8.965,3.488
				c-2.806,0.18-5.852-0.861-8.307,0.51c-1.829,1.021-2.787,3.129-4.473,4.372c-1.649,1.217-3.801,1.474-5.847,1.586
				c-2.046,0.111-4.165,0.132-6.028,0.985c-1.863,0.853-3.405,2.824-3.018,4.836L108.643,130.549z"/>
		</g>
	</g>
	<g>
		<g>
			<path style="fill:#F5F5F5;" d="M483.379,127.767c0.58-4.211-5.363-7.675-9.829-8.035c-2.13-0.172-4.342,0.154-6.359-0.549
				c-4.371-1.523-6.117-7.171-10.382-8.97c-3.189-1.345-6.86-0.148-9.951,1.408c-3.091,1.556-6.146,3.514-9.6,3.735
				c-3.004,0.192-6.266-0.922-8.895,0.546c-1.958,1.093-2.984,3.35-4.79,4.682c-1.766,1.303-4.07,1.578-6.261,1.698
				c-2.191,0.119-4.46,0.141-6.455,1.055c-1.995,0.914-3.646,3.023-3.232,5.178L483.379,127.767z"/>
		</g>
	</g>
</g>
<g id="Background_Simple" style="display:none;">
	<g style="display:inline;">
		<path style="fill:#F5F5F5;" d="M406.22,96.7l-2.161-3.562c-18.221-30.025-51.164-48.125-85.896-45.929
			c-4.465,0.282-8.91,0.887-13.296,1.826c-31.579,6.76-59.057,30.64-70.446,61.224c-6.698,17.987-8.57,38.697-21.281,52.974
			c-16.543,18.581-44.629,19.165-69.322,18.395c-24.693-0.77-52.798-0.113-69.26,18.541c-10.31,11.683-13.587,28.297-12.756,43.943
			c2.201,41.423,31.065,78.461,67.773,96.871c36.708,18.41,79.927,20.059,120.102,11.96c56.28-11.345,109.801-42.501,141.972-90.622
			S431.959,148.639,406.22,96.7z"/>
	</g>
	<g style="display:inline;">
		<circle style="fill:#F5F5F5;" cx="158.878" cy="105.547" r="31.115"/>
	</g>
</g>
<g id="Floor">
	<g>
		<g>
			<path style="fill:#263238;" d="M474.462,477.057c0,0.144-100.503,0.26-224.452,0.26c-123.991,0-224.473-0.117-224.473-0.26
				c0-0.144,100.482-0.26,224.473-0.26C373.959,476.796,474.462,476.913,474.462,477.057z"/>
		</g>
	</g>
</g>
<g id="Plants">
	<g>
		<g>
			<g>
				<g>
					<path style="fill:#FF725E;" d="M420.696,433.066c2.003,0.869,3.476,2.721,4.216,4.775c0.739,2.055,0.806,4.299,0.56,6.469
						c-0.476,4.198-2.861,8.436-5.43,11.79c-3.535-3.085-4.348-8.467-4.589-11.223C415.072,440.521,417.028,432.417,420.696,433.066
						"/>
				</g>
			</g>
		</g>
		<g>
			<g>
				<g>
					<path style="fill:#FF725E;" d="M424.151,463.03c-0.566-2.373,0.421-4.976,2.243-6.598c1.821-1.623,4.366-2.309,6.798-2.123
						c1.125,0.086,2.34,0.414,2.984,1.34c0.602,0.866,0.535,2.074,0.046,3.008c-0.488,0.934-1.334,1.633-2.227,2.193
						C430.932,462.771,427.615,464.069,424.151,463.03"/>
				</g>
			</g>
		</g>
		<g>
			<g>
				<g>
					<g>
						<path style="fill:#263238;" d="M419.618,475.901c-0.021-0.005,0.027-0.311,0.126-0.862c0.111-0.606,0.255-1.39,0.428-2.331
							c0.391-1.948,0.892-4.739,2.406-7.448c1.493-2.702,3.584-4.692,5.345-5.68c0.874-0.506,1.639-0.807,2.179-0.964
							c0.267-0.09,0.484-0.124,0.628-0.159c0.145-0.03,0.222-0.042,0.224-0.031c0.025,0.068-1.225,0.293-2.92,1.34
							c-1.699,1.017-3.72,2.987-5.189,5.643c-1.484,2.653-2.017,5.405-2.461,7.342c-0.214,0.977-0.388,1.769-0.523,2.312
							C419.726,475.608,419.638,475.906,419.618,475.901z"/>
					</g>
				</g>
			</g>
		</g>
		<g>
			<g>
				<g>
					<g>
						<path style="fill:#263238;" d="M419.751,439.37c0.01,0,0.025,0.129,0.043,0.376c0.017,0.28,0.038,0.638,0.064,1.082
							c0.05,0.94,0.105,2.301,0.16,3.983c0.109,3.364,0.194,8.013,0.173,13.148c-0.023,5.137-0.149,9.786-0.287,13.149
							c-0.069,1.681-0.136,3.041-0.194,3.981c-0.03,0.444-0.055,0.802-0.074,1.081c-0.02,0.247-0.036,0.376-0.047,0.376
							c-0.01,0-0.015-0.131-0.015-0.379c0.004-0.28,0.009-0.639,0.016-1.083c0.024-0.979,0.057-2.33,0.097-3.983
							c0.083-3.363,0.174-8.009,0.197-13.143c0.021-5.132-0.03-9.778-0.083-13.142c-0.026-1.653-0.047-3.005-0.062-3.984
							c-0.003-0.445-0.005-0.804-0.007-1.084C419.734,439.5,419.74,439.37,419.751,439.37z"/>
					</g>
				</g>
			</g>
		</g>
		<g>
			<g>
				<g>
					<path style="fill:#FF725E;" d="M418.035,465.585c-0.804-5.079-4.228-9.671-8.866-11.893c-1.181-0.566-2.724-0.935-3.695-0.057
						c-0.973,0.88-0.755,2.46-0.279,3.682c1.98,5.086,7.298,8.677,12.756,8.613"/>
				</g>
			</g>
		</g>
		<g>
			<g>
				<g>
					<g>
						<path style="fill:#263238;" d="M409.742,457.674c0.009-0.019,0.275,0.098,0.75,0.327c0.238,0.113,0.53,0.253,0.848,0.452
							c0.318,0.198,0.701,0.392,1.079,0.677c0.386,0.272,0.816,0.562,1.235,0.929c0.44,0.342,0.867,0.756,1.314,1.194
							c0.871,0.897,1.748,1.969,2.497,3.208c0.737,1.246,1.271,2.524,1.645,3.719c0.168,0.603,0.33,1.176,0.415,1.727
							c0.12,0.544,0.164,1.061,0.212,1.531c0.065,0.469,0.043,0.899,0.059,1.273c0.017,0.375-0.007,0.697-0.029,0.96
							c-0.038,0.526-0.07,0.815-0.091,0.813c-0.069-0.003,0.051-1.168-0.155-3.024c-0.061-0.463-0.117-0.971-0.246-1.504
							c-0.095-0.541-0.263-1.101-0.436-1.693c-0.382-1.17-0.914-2.421-1.638-3.645c-0.736-1.217-1.59-2.274-2.436-3.168
							c-0.435-0.436-0.849-0.851-1.275-1.196c-0.405-0.37-0.823-0.666-1.196-0.947C410.776,458.218,409.711,457.733,409.742,457.674
							z"/>
					</g>
				</g>
			</g>
		</g>
	</g>
	<g>
		<g>
			<g>
				<path style="fill:#263238;" d="M152.056,477.07c-0.079,0.011-0.283-1.089-0.684-2.847c-0.4-1.758-1.028-4.168-1.929-6.763
					c-0.905-2.595-1.909-4.875-2.687-6.501c-0.777-1.627-1.3-2.617-1.231-2.657c0.055-0.033,0.692,0.894,1.56,2.49
					c0.868,1.594,1.936,3.875,2.85,6.496c0.91,2.622,1.489,5.072,1.798,6.861C152.044,475.94,152.119,477.062,152.056,477.07z"/>
			</g>
		</g>
		<g>
			<g>
				<path style="fill:#263238;" d="M160.93,433.795c0.035,0.008-0.055,0.611-0.247,1.695c-0.197,1.083-0.47,2.652-0.786,4.594
					c-0.636,3.882-1.375,9.268-1.837,15.251c-0.455,5.985-0.544,11.422-0.506,15.355c0.018,1.967,0.048,3.559,0.078,4.66
					c0.025,1.101,0.023,1.711-0.013,1.713c-0.036,0.002-0.101-0.604-0.189-1.703c-0.093-1.099-0.179-2.692-0.244-4.662
					c-0.133-3.94-0.102-9.397,0.355-15.402c0.463-6.003,1.262-11.4,1.993-15.275c0.364-1.938,0.692-3.499,0.951-4.571
					C160.738,434.376,160.895,433.787,160.93,433.795z"/>
			</g>
		</g>
		<g>
			<g>
				<path style="fill:#263238;" d="M175.166,458.704c0.064,0.055-0.643,0.932-1.661,2.43c-1.019,1.496-2.31,3.644-3.42,6.169
					c-1.105,2.529-1.81,4.934-2.219,6.697c-0.411,1.763-0.577,2.878-0.661,2.868c-0.059-0.006-0.023-1.14,0.301-2.943
					c0.32-1.801,0.98-4.263,2.102-6.831c1.128-2.564,2.491-4.718,3.598-6.174C174.312,459.46,175.121,458.664,175.166,458.704z"/>
			</g>
		</g>
	</g>
	<g>
		<g>
			<g>
				<path style="fill:#263238;" d="M349.508,461.962c0.06-0.035,0.575,0.72,1.318,1.993c0.743,1.273,1.704,3.071,2.656,5.109
					c0.951,2.04,1.712,3.931,2.211,5.318c0.499,1.387,0.747,2.266,0.682,2.29c-0.07,0.026-0.439-0.807-1.024-2.154
					c-0.584-1.347-1.395-3.205-2.341-5.234c-0.947-2.027-1.851-3.841-2.509-5.154C349.844,462.817,349.443,461.999,349.508,461.962z
					"/>
			</g>
		</g>
		<g>
			<g>
				<path style="fill:#263238;" d="M367.907,443.744c0.035,0.01-0.057,0.472-0.253,1.298c-0.215,0.927-0.487,2.099-0.811,3.498
					c-0.666,2.956-1.477,7.064-2.085,11.646c-0.603,4.583-0.889,8.762-1.014,11.789c-0.05,1.435-0.093,2.638-0.126,3.588
					c-0.026,0.848-0.058,1.318-0.093,1.318c-0.036,0-0.073-0.468-0.109-1.318c-0.04-0.849-0.056-2.079-0.039-3.599
					c0.032-3.04,0.26-7.243,0.866-11.847c0.612-4.602,1.484-8.72,2.244-11.663c0.379-1.472,0.714-2.656,0.974-3.465
					C367.714,444.177,367.872,443.734,367.907,443.744z"/>
			</g>
		</g>
	</g>
	<g>
		<g>
			<g>
				<path style="fill:#263238;" d="M234.804,451.879c0.024-0.027,0.344,0.223,0.905,0.701c0.566,0.471,1.339,1.206,2.248,2.16
					c1.821,1.902,4.099,4.785,6.026,8.328c1.918,3.55,3.09,7.032,3.69,9.596c0.303,1.282,0.497,2.331,0.582,3.063
					c0.094,0.73,0.129,1.135,0.094,1.14c-0.092,0.015-0.342-1.591-1.033-4.111c-0.685-2.518-1.897-5.934-3.791-9.44
					c-1.903-3.499-4.103-6.379-5.84-8.327C235.951,453.034,234.742,451.947,234.804,451.879z"/>
			</g>
		</g>
		<g>
			<g>
				<path style="fill:#263238;" d="M252.128,441.24c0.036,0.002,0.049,0.508,0.043,1.42c-0.003,1.011-0.007,2.308-0.012,3.862
					c0.009,3.259,0.135,7.762,0.563,12.715c0.435,4.954,1.091,9.41,1.646,12.622c0.274,1.53,0.502,2.806,0.68,3.801
					c0.165,0.897,0.239,1.398,0.204,1.406c-0.035,0.008-0.176-0.477-0.402-1.363c-0.23-0.885-0.521-2.175-0.844-3.777
					c-0.649-3.203-1.366-7.671-1.802-12.644c-0.431-4.973-0.498-9.496-0.413-12.763c0.041-1.634,0.105-2.955,0.178-3.866
					C252.037,441.74,252.092,441.238,252.128,441.24z"/>
			</g>
		</g>
		<g>
			<g>
				<path style="fill:#263238;" d="M267.433,462.442c0.146,0.078-1.575,3.079-2.756,7.135c-1.21,4.049-1.394,7.503-1.558,7.489
					c-0.065-0.003-0.102-0.87,0.021-2.266c0.121-1.394,0.433-3.315,1.038-5.371c0.608-2.054,1.388-3.836,2.043-5.073
					C266.875,463.118,267.377,462.409,267.433,462.442z"/>
			</g>
		</g>
	</g>
</g>
<g id="Character">
	<g>
		<g>
			<g>
				<g>
					<rect x="51.314" y="381.917" style="fill:#455A64;" width="11.615" height="92.167"/>
				</g>
				<g>
					<g>
						<path style="fill:#263238;" d="M62.929,474.084c0,0-0.012-0.169-0.018-0.482c-0.004-0.332-0.01-0.791-0.018-1.383
							c-0.008-1.23-0.02-3.01-0.036-5.298c-0.018-4.613-0.044-11.27-0.076-19.543c-0.028-16.546-0.068-39.547-0.112-65.462
							l0.259,0.259c-3.708,0.001-7.633,0.001-11.61,0.002h-0.003h-0.001h-0.001h0h0l0.26-0.26
							c-0.062,40.372-0.116,75.334-0.142,92.167l-0.118-0.118c3.751,0.029,6.638,0.052,8.61,0.067
							c0.968,0.012,1.71,0.022,2.233,0.028C62.661,474.069,62.929,474.084,62.929,474.084s-0.238,0.015-0.73,0.023
							c-0.516,0.007-1.25,0.016-2.206,0.028c-1.988,0.015-4.898,0.038-8.679,0.067l-0.118,0.001l0-0.119
							c-0.026-16.833-0.08-51.795-0.142-92.167l0.261-0.26h0h0.001h0.001h0.003c3.977,0.001,7.901,0.001,11.61,0.002l0.259,0
							l-0.001,0.259c-0.044,25.988-0.083,49.055-0.112,65.648c-0.032,8.247-0.058,14.884-0.076,19.483
							c-0.015,2.263-0.027,4.023-0.036,5.24c-0.007,0.578-0.013,1.026-0.018,1.349C62.941,473.939,62.929,474.084,62.929,474.084z"
							/>
					</g>
				</g>
			</g>
			<g style="opacity:0.3;">
				<rect x="51.314" y="384.157" width="11.615" height="3.837"/>
			</g>
			<g>
				<g>
					<rect x="298.316" y="381.917" style="fill:#455A64;" width="11.615" height="92.167"/>
				</g>
				<g>
					<g>
						<path style="fill:#263238;" d="M309.931,474.084c0,0-0.012-0.169-0.018-0.482c-0.004-0.332-0.01-0.791-0.017-1.383
							c-0.008-1.23-0.02-3.01-0.036-5.298c-0.018-4.613-0.044-11.27-0.076-19.543c-0.028-16.546-0.068-39.547-0.112-65.462
							l0.259,0.259c-3.708,0.001-7.633,0.001-11.61,0.002h-0.003h-0.001h-0.001h0h0l0.26-0.26
							c-0.063,40.372-0.117,75.334-0.143,92.167l-0.118-0.118c3.751,0.029,6.638,0.052,8.61,0.067
							c0.968,0.012,1.71,0.022,2.232,0.028C309.663,474.069,309.931,474.084,309.931,474.084s-0.238,0.015-0.73,0.023
							c-0.516,0.007-1.249,0.016-2.206,0.028c-1.988,0.015-4.898,0.038-8.679,0.067l-0.118,0.001l0-0.119
							c-0.026-16.833-0.08-51.795-0.142-92.167l0.261-0.26h0h0.001h0.001h0.003c3.977,0.001,7.901,0.001,11.61,0.002l0.259,0
							l0,0.259c-0.044,25.988-0.083,49.055-0.112,65.648c-0.032,8.247-0.058,14.884-0.076,19.483
							c-0.015,2.263-0.027,4.023-0.036,5.24c-0.008,0.578-0.013,1.026-0.017,1.349C309.943,473.939,309.931,474.084,309.931,474.084
							z"/>
					</g>
				</g>
			</g>
			<g>
				<g>
					<rect x="280.121" y="301.178" style="fill:#455A64;" width="11.615" height="76.829"/>
				</g>
				<g>
					<g>
						<path style="fill:#263238;" d="M291.736,378.008c-0.006-0.006-0.012-0.142-0.017-0.403c-0.004-0.282-0.01-0.663-0.017-1.151
							c-0.008-1.031-0.02-2.509-0.035-4.408c-0.018-3.843-0.044-9.38-0.076-16.264c-0.028-13.779-0.068-32.945-0.113-54.603
							l0.258,0.258c-3.718,0.001-7.634,0.001-11.611,0.002c0.512-0.521,0.142-0.13,0.256-0.24v0.024v0.049v0.097v0.194v0.388
							l0,0.774l0,1.544c0,1.027,0,2.05,0,3.068c-0.001,2.036-0.001,4.053-0.002,6.049c-0.003,3.991-0.005,7.896-0.007,11.697
							c-0.01,7.599-0.019,14.779-0.027,21.388c-0.04,13.196-0.074,24.109-0.096,31.537l-0.127-0.127
							c3.725,0.031,6.611,0.055,8.591,0.072c0.969,0.013,1.715,0.023,2.244,0.03C291.464,377.991,291.736,378.008,291.736,378.008
							s-0.24,0.016-0.734,0.025c-0.522,0.007-1.259,0.017-2.215,0.03c-1.997,0.017-4.908,0.041-8.665,0.072l-0.127,0.001l0-0.128
							c-0.023-7.428-0.056-18.341-0.096-31.537c-0.008-6.609-0.017-13.789-0.027-21.388c-0.002-3.801-0.005-7.706-0.007-11.697
							c-0.001-1.996-0.001-4.013-0.002-6.049c0-1.018,0-2.041,0-3.068l0-1.544v-0.774v-0.388v-0.194v-0.097v-0.049v-0.024
							c0.118-0.122-0.264,0.24,0.265-0.28c3.977,0.001,7.893,0.002,11.611,0.002l0.259,0l-0.001,0.258
							c-0.045,21.732-0.084,40.962-0.113,54.788c-0.032,6.859-0.058,12.376-0.076,16.205c-0.015,1.873-0.027,3.333-0.035,4.35
							c-0.007,0.474-0.013,0.845-0.017,1.118C291.748,377.889,291.742,378.013,291.736,378.008z"/>
					</g>
				</g>
			</g>
			<g>
				<g>
					<rect x="73.543" y="301.178" style="fill:#455A64;" width="11.615" height="76.829"/>
				</g>
				<g>
					<g>
						<path style="fill:#263238;" d="M85.158,378.008c-0.006-0.006-0.012-0.142-0.017-0.403c-0.004-0.282-0.01-0.663-0.017-1.151
							c-0.008-1.031-0.02-2.509-0.035-4.408c-0.018-3.843-0.044-9.38-0.076-16.264c-0.029-13.779-0.068-32.945-0.113-54.603
							l0.258,0.258c-3.718,0.001-7.633,0.001-11.611,0.002c0.512-0.521,0.142-0.13,0.256-0.24v0.024v0.049v0.097v0.194v0.388
							l0,0.774l0,1.544c0,1.027,0,2.05,0,3.068c-0.001,2.036-0.001,4.053-0.002,6.049c-0.002,3.991-0.005,7.896-0.007,11.697
							c-0.01,7.599-0.019,14.779-0.027,21.388c-0.04,13.196-0.074,24.109-0.096,31.537l-0.127-0.127
							c3.725,0.031,6.611,0.055,8.591,0.072c0.969,0.013,1.715,0.023,2.244,0.03C84.885,377.991,85.158,378.008,85.158,378.008
							s-0.24,0.016-0.734,0.025c-0.522,0.007-1.259,0.017-2.215,0.03c-1.998,0.017-4.908,0.041-8.666,0.072l-0.127,0.001l0-0.128
							c-0.023-7.428-0.056-18.341-0.096-31.537c-0.008-6.609-0.018-13.789-0.027-21.388c-0.002-3.801-0.005-7.706-0.007-11.697
							c-0.001-1.996-0.001-4.013-0.002-6.049c0-1.018,0-2.041,0-3.068l0-1.544v-0.774v-0.388v-0.194v-0.097v-0.049v-0.024
							c0.118-0.122-0.264,0.24,0.265-0.28c3.977,0.001,7.893,0.002,11.611,0.002l0.259,0l-0.001,0.258
							c-0.045,21.732-0.084,40.962-0.113,54.788c-0.032,6.859-0.058,12.376-0.076,16.205c-0.015,1.873-0.027,3.333-0.035,4.35
							c-0.007,0.474-0.013,0.845-0.017,1.118C85.169,377.889,85.163,378.013,85.158,378.008z"/>
					</g>
				</g>
			</g>
			<g>
				<g>
					<rect x="50.631" y="292.412" style="fill:#455A64;" width="263.511" height="12.298"/>
				</g>
				<g>
					<g>
						<path style="fill:#263238;" d="M314.142,304.711c0,0-0.009-0.251-0.014-0.749c-0.004-0.505-0.009-1.253-0.017-2.261
							c-0.009-2.025-0.023-5.09-0.042-9.288l0.073,0.073c-32.405,0.023-138.186,0.098-263.498,0.187h-0.013l0.26-0.26
							c0,4.213,0,8.404,0,12.298l-0.26-0.26c73.352,0.042,139.191,0.08,186.703,0.108c23.772,0.033,42.958,0.06,56.21,0.079
							c6.625,0.016,11.766,0.029,15.26,0.037c1.741,0.008,3.069,0.014,3.973,0.018C313.673,304.698,314.142,304.711,314.142,304.711
							s-0.444,0.012-1.329,0.018c-0.896,0.004-2.213,0.01-3.938,0.018c-3.48,0.008-8.6,0.021-15.199,0.037
							c-13.238,0.018-32.402,0.045-56.149,0.079c-47.562,0.027-113.469,0.065-186.896,0.108l-0.26,0v-0.26c0-3.895,0-8.085,0-12.298
							v-0.26h0.26h0.013c125.311,0.089,231.093,0.164,263.498,0.187l0.074,0l0,0.073c-0.019,4.217-0.033,7.296-0.042,9.33
							c-0.007,1.001-0.013,1.743-0.017,2.244C314.151,304.478,314.142,304.711,314.142,304.711z"/>
					</g>
				</g>
			</g>
			<g>
				<g>
					<rect x="51.314" y="310.86" style="fill:#455A64;" width="263.511" height="12.298"/>
				</g>
				<g>
					<g>
						<path style="fill:#263238;" d="M314.825,323.158c0,0-0.009-0.251-0.014-0.749c-0.004-0.505-0.009-1.253-0.017-2.261
							c-0.009-2.025-0.023-5.09-0.043-9.288l0.073,0.073c-32.405,0.023-138.186,0.098-263.498,0.187h-0.013l0.26-0.26
							c0,4.213,0,8.404,0,12.298l-0.26-0.26c73.352,0.042,139.191,0.08,186.703,0.108c23.772,0.033,42.958,0.06,56.21,0.079
							c6.625,0.016,11.766,0.029,15.26,0.037c1.741,0.008,3.069,0.014,3.973,0.018C314.357,323.146,314.825,323.158,314.825,323.158
							s-0.444,0.012-1.328,0.018c-0.896,0.004-2.213,0.01-3.938,0.018c-3.48,0.008-8.6,0.021-15.2,0.037
							c-13.238,0.019-32.402,0.045-56.149,0.079c-47.562,0.027-113.469,0.065-186.896,0.108l-0.26,0v-0.26c0-3.895,0-8.085,0-12.298
							v-0.26h0.26h0.013c125.311,0.089,231.093,0.164,263.498,0.187h0.074l0,0.073c-0.019,4.217-0.033,7.296-0.043,9.33
							c-0.007,1.001-0.013,1.743-0.017,2.244C314.834,322.925,314.825,323.158,314.825,323.158z"/>
					</g>
				</g>
			</g>
			<g>
				<g>
					<rect x="51.314" y="329.991" style="fill:#455A64;" width="263.511" height="12.298"/>
				</g>
				<g>
					<g>
						<path style="fill:#263238;" d="M314.825,342.289c0,0-0.009-0.251-0.014-0.749c-0.004-0.505-0.009-1.253-0.017-2.261
							c-0.009-2.025-0.023-5.09-0.043-9.288l0.073,0.073c-32.405,0.023-138.186,0.098-263.498,0.187h-0.013l0.26-0.26
							c0,4.213,0,8.404,0,12.298l-0.26-0.26c73.352,0.042,139.191,0.08,186.703,0.108c23.772,0.033,42.958,0.06,56.21,0.079
							c6.625,0.016,11.766,0.029,15.26,0.037c1.741,0.008,3.069,0.014,3.973,0.018C314.357,342.277,314.825,342.289,314.825,342.289
							s-0.444,0.012-1.328,0.018c-0.896,0.004-2.213,0.01-3.938,0.018c-3.48,0.009-8.6,0.021-15.2,0.037
							c-13.238,0.018-32.402,0.045-56.149,0.078c-47.562,0.027-113.469,0.065-186.896,0.108l-0.26,0v-0.26c0-3.895,0-8.085,0-12.298
							v-0.26h0.26h0.013c125.311,0.089,231.093,0.164,263.498,0.187l0.074,0l0,0.073c-0.019,4.217-0.033,7.296-0.043,9.33
							c-0.007,1.001-0.013,1.743-0.017,2.244C314.834,342.056,314.825,342.289,314.825,342.289z"/>
					</g>
				</g>
			</g>
			<g>
				<g>
					<rect x="51.314" y="349.122" style="fill:#455A64;" width="263.511" height="12.298"/>
				</g>
				<g>
					<g>
						<path style="fill:#263238;" d="M314.825,361.421c0,0-0.009-0.251-0.014-0.749c-0.004-0.505-0.009-1.253-0.017-2.261
							c-0.009-2.025-0.023-5.09-0.043-9.288l0.073,0.073c-32.405,0.023-138.186,0.098-263.498,0.187h-0.013l0.26-0.26
							c0,4.213,0,8.404,0,12.298l-0.26-0.26c73.352,0.042,139.191,0.08,186.703,0.108c23.772,0.033,42.958,0.06,56.21,0.079
							c6.625,0.016,11.766,0.029,15.26,0.037c1.741,0.008,3.069,0.014,3.973,0.018C314.357,361.408,314.825,361.421,314.825,361.421
							s-0.444,0.012-1.328,0.018c-0.896,0.004-2.213,0.01-3.938,0.018c-3.48,0.008-8.6,0.021-15.2,0.037
							c-13.238,0.018-32.402,0.045-56.149,0.079c-47.562,0.027-113.469,0.065-186.896,0.108l-0.26,0v-0.26c0-3.895,0-8.085,0-12.298
							v-0.26h0.26h0.013c125.311,0.089,231.093,0.164,263.498,0.187h0.074l0,0.073c-0.019,4.217-0.033,7.296-0.043,9.33
							c-0.007,1.001-0.013,1.743-0.017,2.244C314.834,361.188,314.825,361.421,314.825,361.421z"/>
					</g>
				</g>
			</g>
			<g>
				<g>
					<rect x="39.868" y="371.858" style="fill:#455A64;" width="279.748" height="12.298"/>
				</g>
				<g>
					<g>
						<path style="fill:#263238;" d="M319.616,384.157c0,0-0.009-0.25-0.014-0.747c-0.004-0.504-0.009-1.25-0.016-2.257
							c-0.009-2.023-0.023-5.088-0.041-9.294l0.071,0.071c-33.584,0.023-146.186,0.099-279.734,0.189h-0.014l0.26-0.26
							c0,4.213,0,8.405,0,12.298l-0.26-0.26c77.839,0.042,147.737,0.08,198.187,0.108c25.241,0.033,45.615,0.06,59.688,0.079
							c7.036,0.016,12.496,0.029,16.205,0.037c1.849,0.008,3.26,0.014,4.219,0.018C319.119,384.144,319.616,384.157,319.616,384.157
							s-0.472,0.012-1.412,0.018c-0.951,0.004-2.35,0.01-4.184,0.018c-3.696,0.009-9.135,0.021-16.145,0.037
							c-14.059,0.019-34.411,0.045-59.627,0.079c-50.499,0.027-120.465,0.065-198.38,0.108l-0.26,0v-0.26c0-3.893,0-8.085,0-12.298
							l0-0.26h0.26h0.014c133.548,0.09,246.15,0.167,279.734,0.189h0.072l0,0.071c-0.019,4.224-0.032,7.303-0.041,9.335
							c-0.007,1-0.013,1.741-0.017,2.241C319.624,383.924,319.616,384.157,319.616,384.157z"/>
					</g>
				</g>
			</g>
			<g style="opacity:0.3;">
				<rect x="298.316" y="384.157" width="11.615" height="3.837"/>
			</g>
		</g>
		<g>
			<g>
				<g>
					<g>
						<g>
							<g>
								<g>
									<g>
										<g>
											<g>
												<path style="fill:#A2675F;" d="M168.306,230.32l-2.509,16.193l-6.459,14.74l-9.572-6.113l-3.402-8.603l-2.854-7.215
													c0,0-10.11,2.432-14.137-7.02c-1.944-4.564-5.183-14.288-8.012-23.124c-3.043-9.502,1.72-19.747,10.947-23.544
													l0.917-0.377c10.122-3.49,18.74,3.157,21.949,13.372L168.306,230.32"/>
											</g>
										</g>
									</g>
								</g>
							</g>
						</g>
					</g>
				</g>
				<g>
					<g>
						<g>
							<g>
								<g>
									<g>
										<g>
											<g>
												<path style="fill:#7A4A45;" d="M143.497,239.321c0,0,6.205-1.982,10.937-8.616c0,0-0.114,8.042-9.947,11.087
													L143.497,239.321z"/>
											</g>
										</g>
									</g>
								</g>
							</g>
						</g>
					</g>
				</g>
				<g>
					<g>
						<g>
							<g>
								<g>
									<g>
										<g>
											<g>
												<g>
													<g>
														<g>
															<path style="fill:#263238;" d="M127.536,216.429c0.269,0.727,1.107,1.098,1.871,0.831
																c0.763-0.267,1.165-1.072,0.895-1.799c-0.27-0.727-1.107-1.099-1.87-0.832
																C127.668,214.896,127.267,215.702,127.536,216.429z"/>
														</g>
													</g>
												</g>
											</g>
										</g>
									</g>
								</g>
							</g>
						</g>
					</g>
				</g>
				<g>
					<g>
						<g>
							<g>
								<g>
									<g>
										<g>
											<g>
												<g>
													<g>
														<g>
															<g>
																<path style="fill:#263238;" d="M124.968,212.543c0.241,0.108,0.955-1.076,2.417-1.673
																	c1.451-0.617,2.832-0.307,2.916-0.551c0.045-0.111-0.258-0.36-0.864-0.508c-0.599-0.149-1.517-0.156-2.425,0.222
																	c-0.907,0.379-1.535,1.029-1.833,1.552C124.873,212.115,124.852,212.497,124.968,212.543z"/>
															</g>
														</g>
													</g>
												</g>
											</g>
										</g>
									</g>
								</g>
							</g>
						</g>
					</g>
				</g>
				<g>
					<g>
						<g>
							<g>
								<g>
									<g>
										<g>
											<g>
												<g>
													<g>
														<g>
															<path style="fill:#263238;" d="M140.271,210.751c0.269,0.727,1.107,1.098,1.872,0.83
																c0.763-0.267,1.165-1.072,0.895-1.799c-0.27-0.727-1.108-1.099-1.87-0.832
																C140.403,209.219,140.001,210.025,140.271,210.751z"/>
														</g>
													</g>
												</g>
											</g>
										</g>
									</g>
								</g>
							</g>
						</g>
					</g>
				</g>
				<g>
					<g>
						<g>
							<g>
								<g>
									<g>
										<g>
											<g>
												<g>
													<g>
														<g>
															<g>
																<path style="fill:#263238;" d="M139.347,206.145c0.228,0.133,1.068-0.966,2.585-1.401
																	c1.509-0.456,2.848,0.002,2.959-0.232c0.057-0.106-0.215-0.386-0.804-0.598c-0.579-0.214-1.491-0.32-2.435-0.042
																	c-0.943,0.279-1.637,0.857-1.991,1.344C139.3,205.709,139.237,206.088,139.347,206.145z"/>
															</g>
														</g>
													</g>
												</g>
											</g>
										</g>
									</g>
								</g>
							</g>
						</g>
					</g>
				</g>
				<g>
					<g>
						<g>
							<g>
								<g>
									<g>
										<g>
											<g>
												<g>
													<g>
														<g>
															<path style="fill:#263238;" d="M138.934,220.358c-0.027-0.086-0.999,0.131-2.547,0.548
																c-0.389,0.115-0.772,0.186-0.939-0.042c-0.199-0.233-0.208-0.699-0.206-1.207c-0.021-1.046-0.043-2.143-0.066-3.292
																c-0.132-4.672-0.391-8.451-0.579-8.445c-0.188,0.007-0.234,3.799-0.102,8.471c0.042,1.148,0.08,2.243,0.119,3.29
																c0.034,0.482-0.012,1.062,0.409,1.543c0.215,0.237,0.572,0.327,0.837,0.293c0.269-0.025,0.48-0.108,0.669-0.173
																C138.042,220.814,138.963,220.443,138.934,220.358z"/>
														</g>
													</g>
												</g>
											</g>
										</g>
									</g>
								</g>
							</g>
						</g>
					</g>
				</g>
				<g>
					<g>
						<g>
							<g>
								<g>
									<g>
										<g>
											<path style="fill:#263238;" d="M136.555,199.929c0.307,0.338,1.688-0.45,3.485-0.949
												c1.788-0.535,3.376-0.601,3.456-1.051c0.031-0.212-0.363-0.486-1.08-0.641c-0.711-0.156-1.745-0.157-2.82,0.152
												c-1.074,0.311-1.949,0.861-2.468,1.372C136.603,199.324,136.415,199.766,136.555,199.929z"/>
										</g>
									</g>
								</g>
							</g>
						</g>
					</g>
				</g>
				<g>
					<g>
						<g>
							<g>
								<g>
									<g>
										<g>
											<path style="fill:#263238;" d="M122.883,206.798c0.393,0.226,1.257-0.532,2.46-1.046c1.185-0.556,2.325-0.696,2.418-1.14
												c0.034-0.211-0.264-0.477-0.84-0.606c-0.57-0.131-1.413-0.083-2.233,0.284c-0.82,0.368-1.417,0.965-1.698,1.478
												C122.703,206.284,122.703,206.683,122.883,206.798z"/>
										</g>
									</g>
								</g>
							</g>
						</g>
					</g>
				</g>
				<g>
					<g>
						<g>
							<g>
								<g>
									<g>
										<g>
											<g>
												<g>
													<g>
														<g>
															<g>
																<g>
																	<g>
																		<g>
																			<g>
																				<g>
																					<g>
																						<g>
																							<g>
																								<g>
																									<g>
																										<path style="fill:#A2675F;" d="M157.292,205.984c0.133-0.137,5.733-4.617,8.198,1.964
																											s-4.65,7.698-4.732,7.514C160.677,215.277,157.292,205.984,157.292,205.984z"/>
																									</g>
																								</g>
																							</g>
																						</g>
																					</g>
																				</g>
																			</g>
																		</g>
																	</g>
																</g>
															</g>
														</g>
													</g>
												</g>
											</g>
										</g>
									</g>
								</g>
							</g>
						</g>
					</g>
					<g>
						<g>
							<g>
								<g>
									<g>
										<g>
											<g>
												<g>
													<g>
														<g>
															<g>
																<g>
																	<g>
																		<g>
																			<g>
																				<g>
																					<g>
																						<g>
																							<g>
																								<g>
																									<g>
																										<g>
																											<path style="fill:#7A4A45;" d="M161.835,212.215c0.021-0.032,0.145,0.037,0.372,0.054
																												c0.221,0.015,0.568-0.047,0.863-0.303c0.6-0.516,0.771-1.839,0.359-3.037
																												c-0.208-0.605-0.547-1.128-0.936-1.521c-0.381-0.406-0.819-0.626-1.192-0.557
																												c-0.378,0.05-0.548,0.352-0.559,0.568c-0.019,0.217,0.072,0.333,0.041,0.357
																												c-0.012,0.023-0.183-0.057-0.231-0.349c-0.022-0.141-0.003-0.325,0.104-0.509
																												c0.11-0.188,0.318-0.34,0.571-0.405c0.521-0.155,1.152,0.141,1.58,0.572
																												c0.456,0.423,0.852,1.006,1.084,1.685c0.455,1.342,0.241,2.837-0.608,3.468
																												c-0.418,0.294-0.856,0.299-1.114,0.219C161.906,212.37,161.817,212.236,161.835,212.215z"/>
																										</g>
																									</g>
																								</g>
																							</g>
																						</g>
																					</g>
																				</g>
																			</g>
																		</g>
																	</g>
																</g>
															</g>
														</g>
													</g>
												</g>
											</g>
										</g>
									</g>
								</g>
							</g>
						</g>
					</g>
				</g>
				<g>
					<g>
						<g>
							<g>
								<g>
									<g>
										<g>
											<path style="fill:#263238;" d="M115.745,198.527c-0.233-1.375,0.204-2.962,1.402-3.677
												c-1.035-0.993-1.266-2.72-0.528-3.951c0.738-1.23,2.371-1.839,3.734-1.393c-0.895-1.948,0.881-4.545,3.021-4.417
												c-0.543-1.12-0.209-2.594,0.763-3.371c0.972-0.777,2.484-0.777,3.456,0c0.399-2.889,4.074-4.764,6.647-3.39
												c2.21-1.993,5.987-1.897,8.093,0.207c2.168-0.761,4.774-0.034,6.234,1.74c1.408-0.448,3.043-0.09,4.136,0.904
												c1.093,0.995,1.602,2.589,1.288,4.033c1.97,0.115,3.381,2.576,2.485,4.334c1.158,0.076,2.239,0.865,2.664,1.945
												c0.426,1.079,0.175,2.393-0.619,3.24c1.005-0.275,1.907,0.831,2.001,1.868c0.094,1.038-0.293,2.061-0.306,3.103
												c-0.011,0.858,0.231,1.701,0.273,2.559c0.077,1.612-0.608,3.238-1.802,4.321c0.083,0.042,0.167,0.083,0.25,0.125
												c0.513,0.762-0.412,1.813-1.331,1.805c-0.918-0.008-1.697-0.633-2.445-1.166c-0.857-0.611-1.794-1.158-2.418-2.006
												c-0.624-0.847-0.838-2.117-0.159-2.921c-1.275,0.091-2.469-0.755-3.16-1.83c-0.691-1.075-0.975-2.354-1.246-3.602
												c-0.401-1.843-0.801-3.685-1.202-5.528c-2.378,0.912-5.252,0.357-7.121-1.373c-1.147,1.991-4.251,2.461-5.936,0.899
												c0.206,2.637-2.016,5.222-4.654,5.415c0.811,1.238-1.088,3.481-2.264,4.38c-1.176,0.899-3.218,0.648-3.218,0.648
												s-1.72,2.281-3.169,2.297c-1.423,0.016-3.714-0.872-3.44-2.488C117.176,201.237,115.978,199.902,115.745,198.527z"/>
										</g>
									</g>
								</g>
							</g>
						</g>
					</g>
				</g>
				<g>
					<g>
						<g>
							<g>
								<g>
									<g>
										<g>
											<g>
												<path style="fill:#455A64;" d="M156.8,189.391c-0.072,0.003,0.083,0.49-0.298,1.104
													c-0.189,0.292-0.527,0.585-0.984,0.629c-0.447,0.053-1.008-0.146-1.301-0.587l-0.238-0.357l-0.191,0.39
													c-0.274,0.561-0.944,1.024-1.667,1.016c-0.815-0.008-1.531-0.634-1.72-1.308l-0.113-0.401l-0.292,0.292
													c-0.369,0.37-0.879,0.538-1.318,0.532c-0.444-0.002-0.82-0.176-1.087-0.373c-0.539-0.411-0.66-0.843-0.722-0.815
													c-0.039-0.003-0.027,0.492,0.533,1.04c0.276,0.26,0.71,0.514,1.259,0.554c0.539,0.041,1.177-0.127,1.676-0.59
													l-0.404-0.109c0.224,0.882,1.094,1.685,2.184,1.707c0.953,0.004,1.778-0.588,2.12-1.332l-0.428,0.033
													c0.449,0.618,1.185,0.821,1.769,0.722c0.608-0.099,1.012-0.525,1.191-0.893
													C157.132,189.857,156.827,189.354,156.8,189.391z"/>
											</g>
										</g>
									</g>
								</g>
							</g>
						</g>
					</g>
				</g>
				<g>
					<g>
						<g>
							<g>
								<g>
									<g>
										<g>
											<g>
												<path style="fill:#455A64;" d="M160.343,195.209c-0.049-0.025-0.157,0.278-0.582,0.559
													c-0.389,0.268-1.248,0.504-1.918-0.021l-0.221-0.173l-0.101,0.265c-0.204,0.535-0.761,1.051-1.464,1.146
													c-0.685,0.106-1.509-0.303-1.84-1.016l-0.195-0.419l-0.265,0.384c-0.063,0.092-0.145,0.182-0.241,0.259
													c-0.432,0.351-1.08,0.393-1.492,0.103c-0.431-0.282-0.654-0.825-0.586-1.271l0.076-0.502l-0.43,0.26
													c-0.528,0.319-1.15,0.372-1.648,0.252c-0.504-0.118-0.886-0.406-1.14-0.69c-0.51-0.587-0.55-1.09-0.616-1.072
													c-0.033-0.011-0.105,0.531,0.396,1.249c0.249,0.345,0.667,0.716,1.258,0.892c0.581,0.175,1.32,0.152,1.99-0.223
													l-0.354-0.243c-0.11,0.637,0.165,1.359,0.766,1.774c0.612,0.431,1.506,0.373,2.111-0.117
													c0.137-0.11,0.257-0.241,0.349-0.378l-0.459-0.036c0.451,0.943,1.49,1.433,2.392,1.281
													c0.905-0.151,1.555-0.811,1.779-1.495l-0.322,0.092c0.445,0.328,0.962,0.381,1.364,0.313
													c0.411-0.062,0.729-0.245,0.948-0.429C160.342,195.566,160.371,195.209,160.343,195.209z"/>
											</g>
										</g>
									</g>
								</g>
							</g>
						</g>
					</g>
				</g>
				<g>
					<g>
						<g>
							<g>
								<g>
									<g>
										<g>
											<g>
												<path style="fill:#455A64;" d="M124.149,184.552c0.042,0.021,0.102-0.344,0.558-0.723c0.225-0.18,0.562-0.35,0.97-0.337
													c0.401,0.008,0.88,0.202,1.176,0.614l0.24,0.335l0.058-0.413c0.103-0.738,0.642-1.577,1.538-1.948
													c0.869-0.376,2.118-0.128,2.816,0.747l0.3,0.376l0.126-0.466c0.23-0.852,0.908-1.635,1.801-2.004
													c0.883-0.385,1.992-0.246,2.835,0.342c0.344,0.234,0.63,0.54,0.843,0.881l0.153,0.245l0.23-0.17
													c1.125-0.829,2.788-0.688,3.694,0.172c0.936,0.86,1.165,2.238,0.792,3.224l-0.14,0.37l0.383-0.084
													c0.919-0.202,1.822,0.032,2.46,0.441c0.65,0.408,1.039,0.992,1.252,1.498c0.421,1.04,0.237,1.718,0.308,1.714
													c0.018,0.003,0.075-0.152,0.102-0.462c0.024-0.308,0.013-0.778-0.184-1.339c-0.192-0.553-0.584-1.215-1.289-1.697
													c-0.691-0.479-1.682-0.776-2.739-0.571l0.243,0.285c0.457-1.14,0.235-2.706-0.853-3.74
													c-1.082-1.033-2.983-1.217-4.345-0.233l0.382,0.075c-0.253-0.409-0.591-0.768-0.993-1.042
													c-0.977-0.685-2.289-0.847-3.335-0.384c-1.042,0.442-1.811,1.348-2.072,2.358l0.425-0.09
													c-0.871-1.051-2.328-1.299-3.362-0.831c-1.043,0.467-1.616,1.443-1.702,2.295l0.298-0.078
													c-0.394-0.499-0.97-0.691-1.444-0.676c-0.486,0.014-0.858,0.24-1.088,0.462c-0.235,0.226-0.346,0.455-0.4,0.61
													C124.136,184.462,124.136,184.549,124.149,184.552z"/>
											</g>
										</g>
									</g>
								</g>
							</g>
						</g>
					</g>
				</g>
			</g>
			<g>
				<g>
					<g>
						<g>
							<g>
								<g>
									<g>
										<g>
											<g>
												<g>
													<g>
														<path style="fill:#263238;" d="M143.275,218.766c-0.243,0.084,0.406,1.67-0.488,3.353
															c-0.89,1.685-2.652,2.203-2.574,2.429c0.019,0.108,0.503,0.153,1.224-0.121c0.709-0.264,1.638-0.909,2.185-1.938
															c0.543-1.03,0.521-2.097,0.307-2.769C143.718,219.032,143.38,218.712,143.275,218.766z"/>
													</g>
												</g>
											</g>
										</g>
									</g>
								</g>
							</g>
						</g>
					</g>
				</g>
			</g>
		</g>
		<g>
			<g>
				<path style="fill:#FF725E;" d="M133.533,247.567l-7.926,22.318l1.831,24.4l5.047,42.15c0,0,18.568-6.27,19.403-5.645
					c0.834,0.626-8.214-42.734-8.214-42.734l6.546-35.275l-0.422-10.389L133.533,247.567z"/>
			</g>
			<g>
				<path style="fill:#FF725E;" d="M133.533,247.567l-8.718,20.012l-17.959,7.065l-18.91,5.815l2.692,13.551
					c0.551,2.777,3.336,4.508,6.07,3.775l15.933-4.275l14.843-0.682l7.717-17.938L133.533,247.567z"/>
			</g>
			<g>
				<path style="fill:#A2675F;" d="M94.15,274.891l1.32-1.638c0,0,2.442-0.012,3.762,0.819c1.32,0.831,3.366,3.867,3.63,5.451
					c0.264,1.584,0,4.62,0,4.62l-9.042-9.252"/>
			</g>
			<g>
				<path style="fill:#263238;" d="M76.6,265.171c0,0.273,16.972,18.284,16.972,18.284l3.195,3.154h10.265l-19.803-21.983
					l-8.539-1.453L76.6,265.171z"/>
			</g>
			<g>
				<g>
					<path style="fill:#263238;" d="M145.547,305.181c-0.016,0.008-0.15-0.208-0.389-0.629c-0.255-0.47-0.591-1.088-1.011-1.861
						c-0.859-1.625-2.076-3.992-3.493-6.96c-1.406-2.972-3.061-6.528-4.505-10.647c-0.345-1.036-0.691-2.102-0.931-3.232
						c-0.161-0.551-0.177-1.156-0.266-1.742c-0.02-0.583-0.043-1.171-0.045-1.764c-0.028-2.371,0.033-4.821,0.125-7.328
						c0.117-3.174,0.282-6.248,0.47-9.169l0.01-0.153l0.14-0.061c1.826-0.801,3.584-1.573,5.265-2.31l0.066,0.452
						c-1.404-0.182-2.754-0.356-4.047-0.524l-0.332-0.043l0.167-0.287c2.595-4.467,4.76-8.195,6.308-10.861
						c0.751-1.264,1.352-2.274,1.793-3.018c0.195-0.316,0.356-0.574,0.487-0.786c0.113-0.176,0.177-0.264,0.187-0.258
						c0.01,0.006-0.033,0.105-0.127,0.292c-0.116,0.221-0.257,0.49-0.429,0.819c-0.416,0.758-0.981,1.789-1.687,3.078
						c-1.509,2.689-3.619,6.449-6.147,10.954l-0.165-0.33c1.294,0.157,2.646,0.322,4.051,0.492l0.851,0.103l-0.785,0.349
						c-1.677,0.746-3.432,1.527-5.253,2.337l0.15-0.214c-0.177,2.914-0.336,5.987-0.453,9.155c-0.092,2.502-0.155,4.947-0.135,7.303
						c0.001,0.589,0.022,1.172,0.039,1.748c0.087,0.559,0.092,1.116,0.249,1.661c0.227,1.097,0.564,2.154,0.898,3.18
						c1.406,4.092,3.024,7.66,4.384,10.645c1.372,2.983,2.537,5.372,3.34,7.024c0.383,0.79,0.69,1.423,0.923,1.904
						C145.459,304.94,145.562,305.172,145.547,305.181z"/>
				</g>
			</g>
			<g>
				<path style="fill:#A2675F;" d="M86.625,274.891c0,0-2.574,1.86-2.508,2.916s0.659,2.178,1.253,2.376
					c0.595,0.198,2.377,1.122,2.377,1.122s-1.584,1.518-1.122,3.102c0.462,1.584,1.518,1.98,1.518,1.98s0.066,2.046,0.66,3.234
					c0.594,1.188,2.508,1.584,2.508,1.584s1.056,2.153,1.98,3.222c0.924,1.069,2.772,1.398,2.772,1.398s2.376,0.264,3.63-0.594
					c1.254-0.858,2.64-1.716,2.706-4.62c0,0,5.676-2.838,5.742-4.29c0.066-1.452-0.594-1.914-0.594-1.914l-2.838,0.528
					c0,0-0.396-1.518-1.254-1.65c-0.858-0.132-11.221,2.376-11.221,2.376s7.062-1.122,7.26-2.508
					c0.198-1.386,0.264-2.574-0.792-2.838c-1.056-0.264-8.579,0.542-8.579,0.542l-0.394-1.334c0,0,2.042,0.066,2.042-1.716
					c0-1.782-1.122-2.178-1.122-2.178L86.625,274.891z"/>
			</g>
			<g>
				<polygon style="fill:#FAFAFA;" points="145.547,244.001 146.415,250.892 141.079,280.855 146.488,306.733 174.527,315.017 
					185.556,310.265 181.794,237.636 171.773,230.597 167.924,228.012 153.478,249.871 				"/>
			</g>
			<g>
				<path style="fill:#FF725E;" d="M170.953,230.046l7.007,3.129l24.821,3.337l13.389,70.421l1.682,8.085l25.666,38.41
					c1.177,1.762,0.614,4.152-1.226,5.204l-21.028,12.014c-1.615,0.824-3.591,0.306-4.593-1.204l-26.717-40.261l-13.246-16.953
					c0,0-7.926-23.987-8.969-34.207s-0.595-21.168,0-26.907C168.377,244.971,170.953,230.046,170.953,230.046z"/>
			</g>
			<g>
				<path style="fill:#FF725E;" d="M202.781,236.512c3.274,1.719,5.583,4.838,6.27,8.471c1.579,8.358,6.343,22.94,8.129,38.508
					c2.498,21.781-3.355,28.501-6.12,32.257c-2.705,3.676-19.883,11.747-19.883,11.747l-12.868-17.148l14.252-11.678l-1.251-30.244
					c0,0-5.006-6.883-2.503-17.103C191.309,241.101,198.61,235.886,202.781,236.512L202.781,236.512z"/>
			</g>
			<g style="opacity:0.3;">
				<g>
					<path d="M216.061,306.355c-1.951,5.287-4.179,9.744-8.724,12.259c-4.834,2.675-11.567,6.456-16.16,8.881l3.366,5.216
						c5.27-0.807,14.986-6.952,18.157-11.237S216.828,311.631,216.061,306.355z"/>
				</g>
			</g>
			<g>
				<g>
					<path style="fill:#263238;" d="M190.961,270.03c0.009-0.001,0.041,0.152,0.093,0.452c0.054,0.324,0.127,0.766,0.221,1.333
						c0.186,1.201,0.454,2.927,0.798,5.139c0.674,4.495,1.643,10.96,2.842,18.953l0.015,0.1l-0.077,0.068
						c-4.739,4.177-10.291,9.072-16.389,14.447l0.033-0.317c3.963,5.27,8.318,11.061,12.885,17.135l-0.319-0.076
						c4.28-2.157,8.704-4.494,13.09-7.088c1.245-0.749,2.478-1.502,3.662-2.306c1.19-0.789,2.348-1.638,3.318-2.604
						c1.764-2.123,3.099-4.639,4.071-7.165c1.952-5.106,2.443-10.453,2.4-15.465c-0.071-5.033-0.669-9.795-1.363-14.223
						c-0.691-4.43-1.489-8.534-2.278-12.266c-1.577-7.466-3.09-13.456-4.155-17.589c-0.537-2.044-0.957-3.641-1.25-4.754
						c-0.138-0.525-0.246-0.935-0.325-1.237c-0.071-0.279-0.104-0.423-0.095-0.426c0,0,0.059,0.137,0.147,0.411
						c0.091,0.298,0.216,0.704,0.375,1.223c0.322,1.077,0.78,2.671,1.345,4.73c1.125,4.119,2.694,10.099,4.319,17.564
						c0.813,3.732,1.633,7.837,2.344,12.275c0.714,4.434,1.331,9.215,1.416,14.284c0.056,5.048-0.426,10.458-2.404,15.654
						c-0.999,2.587-2.312,5.096-4.169,7.335c-1.036,1.034-2.203,1.881-3.406,2.682c-1.196,0.812-2.435,1.57-3.686,2.322
						c-4.406,2.605-8.833,4.941-13.129,7.1l-0.19,0.096l-0.129-0.172c-4.555-6.083-8.899-11.883-12.851-17.161l-0.131-0.174
						l0.164-0.143c6.121-5.349,11.694-10.22,16.451-14.377l-0.062,0.168c-1.128-8.003-2.041-14.477-2.676-18.977
						c-0.301-2.219-0.536-3.95-0.699-5.154c-0.072-0.57-0.127-1.015-0.168-1.341C190.965,270.186,190.952,270.031,190.961,270.03z"
						/>
				</g>
			</g>
			<g>
				<g>
					<path style="fill:#263238;" d="M172.831,295.869c-0.018-0.003,0.002-0.243,0.055-0.697c0.066-0.505,0.151-1.163,0.257-1.982
						c0.255-1.778,0.609-4.247,1.042-7.273c0.876-6.141,2.244-14.599,3.573-23.969c0.618-4.536,1.207-8.862,1.744-12.802
						l0.153,0.258c-1.477-0.567-2.892-1.111-4.24-1.628l-0.412-0.158l0.368-0.239c1.523-0.986,2.947-1.908,4.261-2.759l-0.086,0.193
						c-0.506-3.538-0.92-6.429-1.217-8.5c-0.126-0.965-0.227-1.737-0.303-2.322c-0.063-0.532-0.087-0.814-0.068-0.817
						c0.019-0.003,0.081,0.273,0.18,0.799c0.103,0.581,0.238,1.348,0.407,2.306c0.338,2.065,0.81,4.947,1.388,8.474l0.02,0.123
						l-0.106,0.07c-1.305,0.865-2.719,1.803-4.23,2.806l-0.043-0.397c1.352,0.508,2.77,1.04,4.252,1.596l0.179,0.067l-0.025,0.191
						c-0.525,3.942-1.102,8.269-1.706,12.807c-1.329,9.372-2.756,17.828-3.725,23.956c-0.502,3.016-0.911,5.477-1.206,7.249
						c-0.146,0.812-0.264,1.465-0.354,1.966C172.903,295.638,172.849,295.872,172.831,295.869z"/>
				</g>
			</g>
			<g>
				<g>
					<path style="fill:#263238;" d="M199.021,237.456c0.063,0.084-1.211,0.959-2.919,2.735c-0.861,0.88-1.785,2.022-2.705,3.361
						c-0.892,1.357-1.764,2.922-2.484,4.653c-0.699,1.741-1.172,3.469-1.485,5.063c-0.281,1.6-0.42,3.063-0.421,4.294
						c-0.024,2.464,0.273,3.98,0.169,3.996c-0.035,0.007-0.124-0.367-0.253-1.053c-0.071-0.342-0.142-0.764-0.177-1.259
						c-0.041-0.494-0.119-1.057-0.107-1.682c-0.046-1.251,0.057-2.744,0.317-4.38c0.293-1.63,0.762-3.399,1.475-5.176
						c0.735-1.768,1.638-3.359,2.57-4.727c0.96-1.35,1.931-2.488,2.84-3.349c0.43-0.455,0.88-0.802,1.255-1.126
						c0.372-0.329,0.717-0.58,1.008-0.775C198.675,237.632,199,237.427,199.021,237.456z"/>
				</g>
			</g>
			<g>
				<g>
					<path style="fill:#263238;" d="M127.329,292.84c-0.144,0.01-0.603-4.843-1.027-10.839c-0.424-5.998-0.651-10.866-0.507-10.876
						c0.143-0.01,0.603,4.842,1.027,10.84C127.246,287.96,127.473,292.83,127.329,292.84z"/>
				</g>
			</g>
			<g>
				<g>
					<polygon style="fill:#FF725E;" points="211.871,336.986 215.723,344.853 233.554,333.441 227.379,326.452 					"/>
				</g>
				<g>
					<g>
						<path style="fill:#263238;" d="M211.871,336.986c-0.027-0.007,0.348-0.287,1.069-0.802c0.785-0.553,1.84-1.297,3.143-2.216
							c2.798-1.935,6.655-4.603,11.159-7.717l0.176-0.122l0.144,0.162c1.913,2.157,4.004,4.515,6.188,6.978l0.202,0.228
							l-0.257,0.164c-0.247,0.158-0.513,0.328-0.78,0.5c-6.633,4.211-12.644,8.027-17.09,10.85l-0.179,0.114l-0.089-0.189
							c-1.14-2.42-2.074-4.401-2.754-5.846c-0.292-0.639-0.529-1.158-0.716-1.569C211.928,337.164,211.853,336.981,211.871,336.986
							c0.018,0.005,0.127,0.197,0.319,0.557c0.214,0.408,0.484,0.925,0.817,1.561c0.712,1.4,1.69,3.32,2.884,5.667l-0.268-0.075
							c4.426-2.855,10.409-6.716,17.01-10.975c0.267-0.171,0.534-0.341,0.78-0.499l-0.055,0.391c-2.175-2.471-4.258-4.836-6.163-7
							l0.319,0.04c-4.505,3.005-8.365,5.579-11.164,7.445c-1.352,0.885-2.445,1.6-3.26,2.133c-0.353,0.225-0.645,0.411-0.888,0.565
							C211.998,336.925,211.884,336.989,211.871,336.986z"/>
					</g>
				</g>
			</g>
			<g style="opacity:0.3;">
				<path d="M212.043,337.338c0.075,0.152,3.956,12.076,3.956,12.076l16.63-11.806l-1.428-2.661l-15.478,9.906L212.043,337.338z"/>
			</g>
			<g style="opacity:0.3;">
				<path d="M178.465,236.462l2.953,9.747l-2.953,1.358l3.944,1.941c0,0-6.217,33.999-7.001,37.102
					c-0.784,3.103-1.736,4.1-1.736,4.1l6.07-41.53l-4.246-1.612l4.246-2.783L178.465,236.462z"/>
			</g>
			<g>
				<g>
					<path style="fill:#263238;" d="M112.67,289.589c-0.172,0.005,0.146-3.22-1.129-6.896c-1.227-3.693-3.442-6.057-3.302-6.159
						c0.043-0.041,0.652,0.486,1.44,1.518c0.788,1.027,1.713,2.591,2.355,4.474c0.636,1.884,0.855,3.688,0.854,4.982
						C112.891,288.807,112.73,289.596,112.67,289.589z"/>
				</g>
			</g>
			<g style="opacity:0.3;">
				<g>
					<path d="M125.682,270.163c-2.965,7.393-1.895,15.508,1.575,22.677C126.722,284.591,126.405,278.161,125.682,270.163z"/>
				</g>
			</g>
			<g>
				<g>
					<path style="fill:#263238;" d="M168.832,236.206c0.03,0.02-0.159,0.368-0.527,0.98c-0.423,0.709-0.94,1.575-1.548,2.594
						c-1.294,2.195-3.023,5.263-4.73,8.754c-1.156,2.35-2.148,4.593-2.954,6.5l-0.116,0.275l-0.229-0.183
						c-1.64-1.311-2.888-2.538-3.719-3.432c-0.83-0.895-1.251-1.452-1.218-1.481c0.038-0.034,0.525,0.461,1.404,1.297
						c0.879,0.834,2.16,2.002,3.809,3.263l-0.345,0.092c0.767-1.933,1.74-4.198,2.901-6.56c1.715-3.509,3.505-6.564,4.884-8.718
						c0.691-1.076,1.274-1.931,1.692-2.512C168.556,236.496,168.802,236.186,168.832,236.206z"/>
				</g>
			</g>
			<g>
				<g>
					<path style="fill:#263238;" d="M152.411,250.023c0.132,0.05-0.61,2.312-1.666,5.089l-0.133,0.349l-0.281-0.245
						c-0.041-0.036-0.085-0.074-0.13-0.113c-2.321-2.022-3.811-4.038-3.703-4.121c0.116-0.098,1.762,1.74,4.046,3.729
						c0.044,0.038,0.087,0.077,0.128,0.112l-0.413,0.104C151.323,252.153,152.279,249.973,152.411,250.023z"/>
				</g>
			</g>
			<g>
				<g>
					<path style="fill:#263238;" d="M155.345,301.174c-0.018,0.001-0.044-0.167-0.078-0.489c-0.033-0.382-0.074-0.847-0.123-1.408
						c-0.087-1.305-0.205-3.057-0.347-5.185c-0.266-4.379-0.582-10.432-0.846-17.122c-0.257-6.692-0.409-12.754-0.409-17.144
						c-0.004-2.195,0.027-3.971,0.07-5.198c0.028-0.563,0.052-1.029,0.072-1.412c0.022-0.323,0.042-0.492,0.06-0.491
						c0.018,0.001,0.033,0.17,0.045,0.493c0.007,0.383,0.016,0.849,0.026,1.412c0.024,1.307,0.057,3.061,0.096,5.191
						c0.095,4.384,0.304,10.439,0.562,17.128c0.269,6.649,0.513,12.666,0.694,17.124c0.075,2.131,0.136,3.885,0.182,5.192
						c0.01,0.563,0.018,1.03,0.025,1.413C155.372,301.003,155.363,301.173,155.345,301.174z"/>
				</g>
			</g>
		</g>
		<g>
			<g>
				<path style="fill:none;stroke:#839198;stroke-width:0.05;stroke-miterlimit:10;" d="M79.26,337.963"/>
			</g>
		</g>
		<g>
			<g>
				<g>
					<g>
						<g>
							<g>
								<g>
									<g>
										<g>
											<g>
												<g>
													<g>
														<g>
															<g>
																<g>
																	<g>
																		<g>
																			<path style="fill:#FF725E;" d="M96.801,436.216l2.588,24.418c0,0-23.95,10.832-23.911,15.391l47.526-3.318
																				l-2.472-38.212L96.801,436.216z"/>
																		</g>
																	</g>
																</g>
															</g>
														</g>
													</g>
												</g>
											</g>
										</g>
									</g>
								</g>
							</g>
						</g>
					</g>
				</g>
				<g>
					<g>
						<g>
							<g>
								<g>
									<g>
										<g>
											<g>
												<g>
													<g>
														<g>
															<g>
																<g>
																	<g>
																		<g>
																			<g>
																				<path style="fill:#E0E0E0;" d="M113.941,457.549c0.937,0.187,1.645,1.177,1.497,2.121
																					c-0.149,0.944-1.149,1.673-2.09,1.502c-0.94-0.17-1.827-1.332-1.573-2.254c0.253-0.921,1.475-1.712,2.347-1.321
																					"/>
																			</g>
																		</g>
																	</g>
																</g>
															</g>
														</g>
													</g>
												</g>
											</g>
										</g>
									</g>
								</g>
							</g>
						</g>
					</g>
				</g>
				<g>
					<g>
						<g>
							<g>
								<g>
									<g>
										<g>
											<g>
												<g>
													<g>
														<g>
															<g>
																<g>
																	<g>
																		<g>
																			<path style="fill:#E0E0E0;" d="M123.107,473.704l-0.235-3.703l-45.686,3.481c0,0-2.051,1.069-1.708,2.542
																				L123.107,473.704z"/>
																		</g>
																	</g>
																</g>
															</g>
														</g>
													</g>
												</g>
											</g>
										</g>
									</g>
								</g>
							</g>
						</g>
					</g>
				</g>
				<g>
					<g>
						<g>
							<g>
								<g>
									<g>
										<g>
											<g>
												<g>
													<g>
														<g>
															<g>
																<g>
																	<g>
																		<g>
																			<g>
																				<path style="fill:#263238;" d="M98.602,460.446c0.024,0.232,1.192,0.256,2.385,0.922
																					c1.212,0.635,1.87,1.599,2.077,1.493c0.211-0.06-0.232-1.423-1.692-2.205
																					C99.92,459.862,98.537,460.236,98.602,460.446z"/>
																			</g>
																		</g>
																	</g>
																</g>
															</g>
														</g>
													</g>
												</g>
											</g>
										</g>
									</g>
								</g>
							</g>
						</g>
					</g>
				</g>
				<g>
					<g>
						<g>
							<g>
								<g>
									<g>
										<g>
											<g>
												<g>
													<g>
														<g>
															<g>
																<g>
																	<g>
																		<g>
																			<g>
																				<path style="fill:#263238;" d="M93.761,462.856c-0.037,0.229,0.995,0.553,1.852,1.48
																					c0.884,0.901,1.157,1.949,1.387,1.923c0.221,0.021,0.286-1.349-0.801-2.481
																					C95.123,462.636,93.751,462.634,93.761,462.856z"/>
																			</g>
																		</g>
																	</g>
																</g>
															</g>
														</g>
													</g>
												</g>
											</g>
										</g>
									</g>
								</g>
							</g>
						</g>
					</g>
				</g>
				<g>
					<g>
						<g>
							<g>
								<g>
									<g>
										<g>
											<g>
												<g>
													<g>
														<g>
															<g>
																<g>
																	<g>
																		<g>
																			<g>
																				<path style="fill:#263238;" d="M91.347,469.019c0.214,0.035,0.456-1.147-0.228-2.376
																					c-0.676-1.235-1.805-1.66-1.89-1.459c-0.118,0.2,0.634,0.833,1.181,1.851
																					C90.98,468.039,91.114,469.013,91.347,469.019z"/>
																			</g>
																		</g>
																	</g>
																</g>
															</g>
														</g>
													</g>
												</g>
											</g>
										</g>
									</g>
								</g>
							</g>
						</g>
					</g>
				</g>
				<g>
					<g>
						<g>
							<g>
								<g>
									<g>
										<g>
											<g>
												<g>
													<g>
														<g>
															<g>
																<g>
																	<g>
																		<g>
																			<g>
																				<path style="fill:#263238;" d="M98.63,454.816c0.112,0.205,1.154-0.19,2.472-0.192
																					c1.318-0.029,2.369,0.34,2.477,0.132c0.123-0.177-0.934-0.967-2.486-0.942
																					C99.54,453.827,98.503,454.641,98.63,454.816z"/>
																			</g>
																		</g>
																	</g>
																</g>
															</g>
														</g>
													</g>
												</g>
											</g>
										</g>
									</g>
								</g>
							</g>
						</g>
					</g>
				</g>
			</g>
			<g>
				<g>
					<g>
						<g>
							<g>
								<g>
									<g>
										<g>
											<g>
												<g>
													<g>
														<g>
															<g>
																<g>
																	<g>
																		<g>
																			<path style="fill:#FF725E;" d="M88.338,337.686L66.327,348.57c0,0-18.456-18.717-22.719-17.102l19.572,43.435
																				l34.991-15.552L88.338,337.686z"/>
																		</g>
																	</g>
																</g>
															</g>
														</g>
													</g>
												</g>
											</g>
										</g>
									</g>
								</g>
							</g>
						</g>
					</g>
				</g>
				<g>
					<g>
						<g>
							<g>
								<g>
									<g>
										<g>
											<g>
												<g>
													<g>
														<g>
															<g>
																<g>
																	<g>
																		<g>
																			<g>
																				<path style="fill:#E0E0E0;" d="M74.261,361.153c0.149,0.944-0.534,1.951-1.471,2.139
																					c-0.937,0.188-1.967-0.499-2.132-1.44c-0.166-0.941,0.618-2.175,1.57-2.257c0.952-0.081,2.117,0.79,2.052,1.744
																					"/>
																			</g>
																		</g>
																	</g>
																</g>
															</g>
														</g>
													</g>
												</g>
											</g>
										</g>
									</g>
								</g>
							</g>
						</g>
					</g>
				</g>
				<g>
					<g>
						<g>
							<g>
								<g>
									<g>
										<g>
											<g>
												<g>
													<g>
														<g>
															<g>
																<g>
																	<g>
																		<g>
																			<path style="fill:#E0E0E0;" d="M62.28,375.347l3.392-1.503l-19.087-41.653c0,0-1.713-1.555-2.976-0.722
																				L62.28,375.347z"/>
																		</g>
																	</g>
																</g>
															</g>
														</g>
													</g>
												</g>
											</g>
										</g>
									</g>
								</g>
							</g>
						</g>
					</g>
				</g>
				<g>
					<g>
						<g>
							<g>
								<g>
									<g>
										<g>
											<g>
												<g>
													<g>
														<g>
															<g>
																<g>
																	<g>
																		<g>
																			<g>
																				<path style="fill:#263238;" d="M66.231,347.767c-0.209,0.103,0.173,1.206-0.039,2.557
																					c-0.177,1.357-0.853,2.309-0.681,2.466c0.13,0.177,1.255-0.71,1.482-2.351
																					C67.236,348.802,66.405,347.633,66.231,347.767z"/>
																			</g>
																		</g>
																	</g>
																</g>
															</g>
														</g>
													</g>
												</g>
											</g>
										</g>
									</g>
								</g>
							</g>
						</g>
					</g>
				</g>
				<g>
					<g>
						<g>
							<g>
								<g>
									<g>
										<g>
											<g>
												<g>
													<g>
														<g>
															<g>
																<g>
																	<g>
																		<g>
																			<g>
																				<path style="fill:#263238;" d="M62.294,344.06c-0.227,0.044-0.174,1.125-0.747,2.25
																					c-0.539,1.141-1.427,1.76-1.323,1.967c0.057,0.214,1.365-0.198,2.05-1.61
																					C62.972,345.262,62.498,343.974,62.294,344.06z"/>
																			</g>
																		</g>
																	</g>
																</g>
															</g>
														</g>
													</g>
												</g>
											</g>
										</g>
									</g>
								</g>
							</g>
						</g>
					</g>
				</g>
				<g>
					<g>
						<g>
							<g>
								<g>
									<g>
										<g>
											<g>
												<g>
													<g>
														<g>
															<g>
																<g>
																	<g>
																		<g>
																			<g>
																				<path style="fill:#263238;" d="M55.676,343.93c0.042,0.213,1.234,0.031,2.15-1.037
																					c0.924-1.062,0.932-2.268,0.714-2.279c-0.228-0.041-0.561,0.884-1.327,1.749
																					C56.469,343.246,55.602,343.709,55.676,343.93z"/>
																			</g>
																		</g>
																	</g>
																</g>
															</g>
														</g>
													</g>
												</g>
											</g>
										</g>
									</g>
								</g>
							</g>
						</g>
					</g>
				</g>
				<g>
					<g>
						<g>
							<g>
								<g>
									<g>
										<g>
											<g>
												<g>
													<g>
														<g>
															<g>
																<g>
																	<g>
																		<g>
																			<g>
																				<path style="fill:#263238;" d="M71.523,345.843c-0.153,0.176,0.578,1.017,1.036,2.253
																					c0.484,1.226,0.502,2.34,0.733,2.369c0.209,0.054,0.584-1.211,0.023-2.659
																					C72.766,346.355,71.642,345.664,71.523,345.843z"/>
																			</g>
																		</g>
																	</g>
																</g>
															</g>
														</g>
													</g>
												</g>
											</g>
										</g>
									</g>
								</g>
							</g>
						</g>
					</g>
				</g>
			</g>
			<g>
				<path style="fill:#263238;" d="M99.084,351.53c0,0-7.882,1.606-9.488,10.071s4.223,93.659,4.223,93.659l29.897-2.396
					l-1.826-57.407l-0.736-11.572l2.562-1.964l52.55-9.246l-7.996-21.728l-8.788-15.293l-40.255,10.039L99.084,351.53z"/>
			</g>
			<g>
				<path style="fill:#263238;" d="M198.028,337.176c0,0-21.742-31.429-28.097-36.002c-5.243-3.773-13.121-3.767-17.989-1.576
					c-4.868,2.191-81.053,39.955-81.053,39.955l11.169,27.96l72.465-25.113l10.801,16.951l10.053,13.323l28.238,0.221
					c1.338,0,7.4-11.978,7.4-11.978L198.028,337.176z"/>
			</g>
			<g>
				<g>
					<path style="fill:#455A64;" d="M89.317,368.172c-0.009,0-0.014-0.099-0.014-0.294c0.003-0.224,0.006-0.508,0.01-0.863
						c0.009-0.392,0.021-0.86,0.033-1.405c0.049-0.553,0.136-1.189,0.219-1.907c0.051-0.724,0.301-1.496,0.47-2.36
						c0.084-0.434,0.27-0.859,0.41-1.316c0.146-0.457,0.305-0.928,0.54-1.389c0.824-1.876,2.166-3.916,4.272-5.481
						c1.05-0.775,2.273-1.434,3.675-1.801c1.389-0.235,2.834-0.48,4.329-0.733c2.987-0.5,6.177-1.033,9.531-1.594
						c6.719-1.113,14.099-2.335,21.846-3.618c7.012-1.149,13.723-2.248,19.845-3.251l0.158-0.026l0.086,0.135
						c5.81,9.073,10.53,16.964,14.497,22.123c1.926,2.584,3.461,4.644,4.539,6.091c0.513,0.684,0.916,1.223,1.213,1.618
						c0.123,0.17,0.223,0.307,0.306,0.422c0.067,0.096,0.099,0.147,0.093,0.151c-0.005,0.004-0.048-0.038-0.126-0.126
						c-0.092-0.108-0.202-0.237-0.338-0.397c-0.311-0.384-0.736-0.906-1.275-1.571c-1.102-1.381-2.696-3.41-4.654-6.01
						c-4.042-5.119-8.835-13.001-14.667-22.039l0.245,0.109c-6.12,1.013-12.828,2.124-19.838,3.284
						c-7.749,1.269-15.131,2.478-21.852,3.578c-3.358,0.544-6.549,1.062-9.539,1.547c-1.489,0.242-2.928,0.475-4.312,0.699
						c-1.322,0.335-2.527,0.965-3.547,1.707c-2.056,1.499-3.39,3.472-4.225,5.304c-0.237,0.449-0.401,0.911-0.551,1.358
						c-0.144,0.448-0.335,0.864-0.425,1.291c-0.18,0.851-0.443,1.61-0.509,2.327c-0.099,0.705-0.188,1.335-0.265,1.888
						c-0.032,0.542-0.06,1.007-0.083,1.396c-0.025,0.354-0.046,0.637-0.062,0.86C89.339,368.073,89.326,368.172,89.317,368.172z"/>
				</g>
			</g>
			<g>
				<g>
					<path style="fill:#455A64;" d="M164.899,323.009c0.036-0.002,0.075,0.318,0.114,0.901c0.051,0.582,0.038,1.431-0.053,2.474
						c-0.083,1.045-0.307,2.277-0.669,3.616c-0.387,1.331-0.928,2.764-1.665,4.189c-0.753,1.416-1.625,2.676-2.5,3.751
						c-0.896,1.059-1.783,1.944-2.595,2.606c-0.805,0.668-1.497,1.16-2.005,1.449c-0.502,0.299-0.787,0.449-0.806,0.418
						c-0.053-0.082,1.044-0.761,2.568-2.145c0.767-0.685,1.609-1.579,2.465-2.632c0.836-1.069,1.675-2.307,2.411-3.691
						c0.719-1.392,1.261-2.785,1.665-4.081c0.379-1.303,0.636-2.503,0.764-3.524C164.866,324.3,164.801,323.012,164.899,323.009z"/>
				</g>
			</g>
		</g>
	</g>
</g>
<g id="Device">
	<g>
		<g>
			<g>
				<g>
					<g>
						<g>
							<g>
								<g>
									<g>
										<g>
											<g>
												<path style="fill:#263238;" d="M416.905,422.684l-130.856-0.078c-15.738-0.008-28.491-12.771-28.488-28.509
													l0.064-328.059c0.003-15.747,12.774-28.508,28.521-28.499l130.857,0.077c15.738,0.01,28.49,12.772,28.487,28.51
													l-0.064,328.06C445.423,409.932,432.652,422.694,416.905,422.684z"/>
											</g>
										</g>
									</g>
								</g>
							</g>
						</g>
						<g>
							<g>
								<g>
									<g>
										<g>
											<g>
												<path style="fill:#FFFFFF;" d="M416.864,49.219l-25.371-0.015c-3.402-0.002-6.162,2.881-6.161,6.437l-0.002,4.602
													c0,3.557-2.759,6.439-6.161,6.437l-49.453-0.029c-3.402-0.002-6.16-2.887-6.159-6.444l0.001-4.602
													c0-3.557-2.758-6.442-6.16-6.444l-8.923-0.006l-22.206-0.013c-11.028-0.006-19.972,8.931-19.974,19.959l-0.063,320.209
													c-0.002,11.023,8.929,19.961,19.951,19.968l130.595,0.076c11.027,0.007,19.971-8.93,19.974-19.959l0.063-320.21
													C436.817,58.164,427.886,49.226,416.864,49.219z"/>
											</g>
										</g>
									</g>
								</g>
							</g>
						</g>
					</g>
				</g>
			</g>
			<g>
				<g>
					<g>
						<g>
							<g>
								<g>
									<path style="fill:#F5F5F5;" d="M436.815,69.186c0.002-11.022-8.929-19.96-19.951-19.967l-25.371-0.015
										c-3.402-0.002-6.162,2.881-6.161,6.437l-0.002,4.602c0,3.557-2.759,6.439-6.161,6.437l-49.453-0.029
										c-3.402-0.002-6.16-2.887-6.159-6.444l0.001-4.602c0-3.557-2.758-6.442-6.16-6.444l-8.923-0.006l-22.206-0.013
										c-11.028-0.006-19.972,8.931-19.974,19.959l-0.063,30.62h170.58L436.815,69.186z"/>
								</g>
							</g>
						</g>
					</g>
				</g>
			</g>
			<g>
				<g>
					<g>
						<g>
							<path style="fill:#263238;" d="M422.936,80.437c0.001,0.095-3.056,0.198-6.826,0.229c-3.772,0.031-6.829-0.021-6.83-0.116
								c-0.001-0.096,3.055-0.198,6.827-0.229C419.877,80.29,422.935,80.342,422.936,80.437z"/>
						</g>
					</g>
				</g>
				<g>
					<g>
						<g>
							<path style="fill:#263238;" d="M422.964,83.931c0.001,0.095-3.056,0.198-6.826,0.229c-3.772,0.031-6.829-0.021-6.83-0.116
								c-0.001-0.095,3.055-0.198,6.827-0.229C419.906,83.784,422.964,83.836,422.964,83.931z"/>
						</g>
					</g>
				</g>
				<g>
					<g>
						<g>
							<path style="fill:#263238;" d="M422.993,87.425c0.001,0.095-3.056,0.198-6.826,0.229c-3.772,0.031-6.829-0.021-6.83-0.117
								c-0.001-0.095,3.055-0.198,6.827-0.229C419.935,87.278,422.993,87.33,422.993,87.425z"/>
						</g>
					</g>
				</g>
			</g>
		</g>
		<g>
			<path style="fill:#263238;" d="M304.114,322.237l0.688-1.45c0.967,0.874,2.621,1.506,4.294,1.506
				c2.248,0,3.215-0.874,3.215-2.008c0-3.178-7.88-1.171-7.88-6.003c0-2.007,1.561-3.717,4.98-3.717
				c1.524,0,3.103,0.409,4.182,1.152l-0.613,1.486c-1.134-0.725-2.416-1.059-3.568-1.059c-2.212,0-3.159,0.929-3.159,2.063
				c0,3.178,7.88,1.189,7.88,5.966c0,1.988-1.599,3.698-5.036,3.698C307.106,323.871,305.155,323.203,304.114,322.237z"/>
			<path style="fill:#263238;" d="M315.673,318.798c0-2.937,2.175-5.019,5.204-5.019c1.766,0,3.234,0.725,4.015,2.101l-1.356,0.873
				c-0.633-0.966-1.599-1.412-2.677-1.412c-1.933,0-3.383,1.357-3.383,3.457c0,2.137,1.45,3.476,3.383,3.476
				c1.078,0,2.044-0.446,2.677-1.413l1.356,0.855c-0.78,1.375-2.249,2.118-4.015,2.118
				C317.848,323.834,315.673,321.735,315.673,318.798z"/>
			<path style="fill:#263238;" d="M335.002,317.776v5.947h-1.691v-1.301c-0.595,0.892-1.691,1.412-3.233,1.412
				c-2.23,0-3.643-1.189-3.643-2.899c0-1.579,1.021-2.881,3.958-2.881h2.825v-0.352c0-1.506-0.873-2.379-2.639-2.379
				c-1.171,0-2.36,0.409-3.123,1.06l-0.743-1.339c1.022-0.817,2.49-1.264,4.07-1.264C333.477,313.78,335.002,315.08,335.002,317.776
				z M333.217,320.712v-1.375h-2.751c-1.766,0-2.267,0.688-2.267,1.523c0,0.985,0.817,1.599,2.174,1.599
				C331.712,322.459,332.771,321.846,333.217,320.712z"/>
			<path style="fill:#263238;" d="M347.658,318.054v5.669h-1.784v-5.464c0-1.933-0.967-2.881-2.658-2.881
				c-1.895,0-3.122,1.134-3.122,3.271v5.074h-1.784v-9.851h1.71v1.487c0.725-1.004,1.988-1.58,3.55-1.58
				C345.966,313.78,347.658,315.156,347.658,318.054z"/>
			<path style="fill:#263238;" d="M360.314,318.054v5.669h-1.784v-5.464c0-1.933-0.967-2.881-2.658-2.881
				c-1.896,0-3.122,1.134-3.122,3.271v5.074h-1.784v-9.851h1.71v1.487c0.725-1.004,1.988-1.58,3.55-1.58
				C358.623,313.78,360.314,315.156,360.314,318.054z"/>
			<path style="fill:#263238;" d="M363.305,310.824c0-0.65,0.52-1.171,1.208-1.171c0.689,0,1.208,0.502,1.208,1.134
				c0,0.669-0.501,1.189-1.208,1.189C363.826,311.977,363.305,311.475,363.305,310.824z M363.622,313.872h1.784v9.851h-1.784
				V313.872z"/>
			<path style="fill:#263238;" d="M378.156,318.054v5.669h-1.784v-5.464c0-1.933-0.967-2.881-2.658-2.881
				c-1.896,0-3.122,1.134-3.122,3.271v5.074h-1.784v-9.851h1.71v1.487c0.725-1.004,1.988-1.58,3.55-1.58
				C376.464,313.78,378.156,315.156,378.156,318.054z"/>
			<path style="fill:#263238;" d="M390.941,313.872v8.513c0,3.476-1.766,5.055-5.111,5.055c-1.803,0-3.624-0.502-4.702-1.468
				l0.855-1.376c0.91,0.781,2.342,1.283,3.791,1.283c2.323,0,3.383-1.078,3.383-3.309v-0.78c-0.855,1.021-2.138,1.523-3.55,1.523
				c-2.844,0-5-1.933-5-4.776c0-2.844,2.156-4.758,5-4.758c1.468,0,2.806,0.539,3.643,1.617v-1.524H390.941z M389.194,318.537
				c0-1.914-1.413-3.196-3.383-3.196c-1.988,0-3.401,1.282-3.401,3.196c0,1.895,1.413,3.216,3.401,3.216
				C387.781,321.753,389.194,320.433,389.194,318.537z"/>
			<path style="fill:#263238;" d="M393.504,322.552c0-0.743,0.576-1.264,1.265-1.264c0.669,0,1.227,0.521,1.227,1.264
				c0,0.743-0.558,1.282-1.227,1.282C394.081,323.834,393.504,323.295,393.504,322.552z"/>
			<path style="fill:#263238;" d="M397.723,322.552c0-0.743,0.576-1.264,1.265-1.264c0.669,0,1.227,0.521,1.227,1.264
				c0,0.743-0.558,1.282-1.227,1.282C398.299,323.834,397.723,323.295,397.723,322.552z"/>
			<path style="fill:#263238;" d="M401.942,322.552c0-0.743,0.576-1.264,1.265-1.264c0.669,0,1.227,0.521,1.227,1.264
				c0,0.743-0.558,1.282-1.227,1.282C402.518,323.834,401.942,323.295,401.942,322.552z"/>
		</g>
		<g>
			<g>
				<g>
					<g>
						<polygon style="fill:#263238;" points="294.143,220.875 294.143,227.066 300.334,227.066 300.334,220.875 300.334,214.684 
							294.143,214.684 						"/>
					</g>
				</g>
				<g>
					<g>
						<rect x="294.143" y="183.728" style="fill:#263238;" width="6.191" height="6.191"/>
					</g>
				</g>
				<g>
					<g>
						<rect x="332.401" y="251.894" style="fill:#263238;" width="6.191" height="6.191"/>
					</g>
				</g>
				<g>
					<g>
						<polygon style="fill:#263238;" points="300.334,196.11 300.334,202.301 294.143,202.301 294.143,208.493 300.334,208.493 
							300.334,214.684 306.525,214.684 312.716,214.684 312.716,220.875 318.908,220.875 318.908,214.684 325.099,214.684 
							325.099,208.493 325.099,202.301 318.908,202.301 318.908,208.493 312.716,208.493 306.525,208.493 306.525,202.301 
							306.525,196.11 306.525,189.919 300.334,189.919 						"/>
					</g>
				</g>
				<g>
					<g>
						<polygon style="fill:#263238;" points="312.716,183.728 306.525,183.728 306.525,189.919 312.716,189.919 318.908,189.919 
							318.908,183.728 						"/>
					</g>
				</g>
				<g>
					<g>
						<polygon style="fill:#263238;" points="340.577,233.499 343.904,233.499 343.904,227.308 340.577,227.308 337.251,227.308 
							337.251,233.499 						"/>
					</g>
				</g>
				<g>
					<g>
						<rect x="318.908" y="189.919" style="fill:#263238;" width="6.191" height="6.191"/>
					</g>
				</g>
				<g>
					<g>
						<rect x="362.246" y="214.684" style="fill:#263238;" width="6.191" height="6.191"/>
					</g>
				</g>
				<g>
					<g>
						<rect x="368.438" y="146.581" style="fill:#263238;" width="6.191" height="6.191"/>
					</g>
				</g>
				<g>
					<g>
						<polygon style="fill:#263238;" points="337.481,196.11 337.481,189.919 343.673,189.919 343.673,183.728 337.481,183.728 
							337.481,177.537 331.29,177.537 331.29,183.728 325.099,183.728 325.099,189.919 331.29,189.919 331.29,196.11 
							331.29,202.301 331.29,208.493 331.29,214.684 337.481,214.684 337.481,208.493 337.481,202.301 343.673,202.301 
							343.673,196.11 						"/>
					</g>
				</g>
				<g>
					<g>
						<polygon style="fill:#263238;" points="368.438,258.022 374.629,258.022 374.629,251.831 368.438,251.831 362.246,251.831 
							362.246,258.022 						"/>
					</g>
				</g>
				<g>
					<g>
						<rect x="356.055" y="146.581" style="fill:#263238;" width="6.191" height="6.191"/>
					</g>
				</g>
				<g>
					<g>
						<polygon style="fill:#263238;" points="360.698,196.11 360.698,189.919 354.507,189.919 354.507,183.728 348.316,183.728 
							348.316,189.919 348.316,196.11 342.125,196.11 342.125,202.301 348.316,202.301 354.507,202.301 354.507,196.11 						"/>
					</g>
				</g>
				<g>
					<g>
						<rect x="389.452" y="183.728" style="fill:#263238;" width="6.191" height="6.191"/>
					</g>
				</g>
				<g>
					<g>
						<rect x="325.277" y="214.684" style="fill:#263238;" width="6.191" height="6.191"/>
					</g>
				</g>
				<g>
					<g>
						<polygon style="fill:#263238;" points="356.055,177.537 356.055,171.346 362.246,171.346 362.246,165.154 368.438,165.154 
							374.629,165.154 374.629,158.963 368.438,158.963 368.438,152.772 362.246,152.772 362.246,158.963 356.055,158.963 
							356.055,165.154 349.864,165.154 349.864,171.346 343.673,171.346 343.673,177.537 349.864,177.537 						"/>
					</g>
				</g>
				<g>
					<g>
						<polygon style="fill:#263238;" points="356.055,220.875 356.055,214.684 362.246,214.684 362.246,208.493 356.055,208.493 
							349.864,208.493 349.864,214.684 343.673,214.684 343.673,220.875 349.864,220.875 						"/>
					</g>
				</g>
				<g>
					<g>
						<polygon style="fill:#263238;" points="374.629,245.637 374.629,239.445 368.438,239.445 362.246,239.445 362.246,233.254 
							356.055,233.254 356.055,239.445 349.864,239.445 349.864,245.637 343.673,245.637 337.481,245.637 337.481,251.828 
							343.673,251.828 349.864,251.828 356.055,251.828 356.055,245.637 362.246,245.637 362.246,251.828 368.438,251.828 
							368.438,245.637 						"/>
					</g>
				</g>
				<g>
					<g>
						<polygon style="fill:#263238;" points="349.864,152.772 349.864,146.581 343.673,146.581 337.481,146.581 337.481,152.772 
							331.29,152.772 331.29,158.963 337.481,158.963 343.673,158.963 343.673,152.772 						"/>
					</g>
				</g>
				<g>
					<g>
						<rect x="343.673" y="158.963" style="fill:#263238;" width="6.191" height="6.191"/>
					</g>
				</g>
				<g>
					<g>
						<polygon style="fill:#263238;" points="365.342,183.728 359.151,183.728 359.151,189.919 359.151,196.11 359.151,202.301 
							365.342,202.301 371.533,202.301 371.533,196.11 365.342,196.11 365.342,189.919 371.533,189.919 371.533,183.728 
							377.724,183.728 377.724,177.537 371.533,177.537 371.533,171.346 365.342,171.346 365.342,177.537 						"/>
					</g>
				</g>
				<g>
					<g>
						<rect x="337.481" y="165.154" style="fill:#263238;" width="6.191" height="6.191"/>
					</g>
				</g>
				<g>
					<g>
						<polygon style="fill:#263238;" points="362.246,227.066 362.246,233.258 368.438,233.258 374.629,233.258 374.629,227.066 
							380.82,227.066 387.011,227.066 387.011,220.875 380.82,220.875 374.629,220.875 368.438,220.875 368.438,227.066 						"/>
					</g>
				</g>
				<g>
					<g>
						<rect x="389.452" y="202.301" style="fill:#263238;" width="6.191" height="6.191"/>
					</g>
				</g>
				<g>
					<g>
						<rect x="368.438" y="208.493" style="fill:#263238;" width="6.191" height="6.191"/>
					</g>
				</g>
				<g>
					<g>
						<polygon style="fill:#263238;" points="390.107,189.919 383.916,189.919 377.724,189.919 377.724,196.11 383.916,196.11 
							383.916,202.301 390.107,202.301 390.107,196.11 						"/>
					</g>
				</g>
				<g>
					<g>
						<rect x="380.82" y="208.493" style="fill:#263238;" width="6.191" height="6.191"/>
					</g>
				</g>
				<g>
					<g>
						<path style="fill:#263238;" d="M318.908,245.756h18.581v-24.888H312.6v6.198h-6.075v6.191h6.075v6.191h-6.075v6.191h6.075
							v0.116h0.116v6.075h-6.191v6.191v6.191h6.191v-6.191h6.191v-6.191V245.756z M332.722,225.635v15.478h-15.478v-15.478H332.722z
							"/>
					</g>
				</g>
				<g>
					<g>
						<polygon style="fill:#263238;" points="399.394,220.875 405.585,220.875 405.585,214.684 399.394,214.684 393.202,214.684 
							387.011,214.684 387.011,220.875 393.202,220.875 						"/>
					</g>
				</g>
				<g>
					<g>
						<polygon style="fill:#263238;" points="399.394,196.11 405.585,196.11 405.585,189.919 405.585,183.728 399.394,183.728 
							399.394,189.919 						"/>
					</g>
				</g>
				<g>
					<g>
						<polygon style="fill:#263238;" points="350.095,227.308 343.904,227.308 343.904,233.499 343.904,239.69 350.095,239.69 
							350.095,233.499 						"/>
					</g>
				</g>
				<g>
					<g>
						<rect x="405.585" y="220.875" style="fill:#263238;" width="6.191" height="6.191"/>
					</g>
				</g>
				<g>
					<g>
						<polygon style="fill:#263238;" points="411.776,208.493 411.776,202.301 405.585,202.301 405.585,208.493 405.585,214.684 
							411.776,214.684 						"/>
					</g>
				</g>
				<g>
					<g>
						<polygon style="fill:#263238;" points="300.334,251.831 294.143,251.831 294.143,258.022 294.143,264.214 300.334,264.214 
							300.334,258.022 						"/>
					</g>
				</g>
				<g>
					<g>
						<path style="fill:#263238;" d="M411.776,177.537v-30.956H380.82v30.956H411.776z M385.464,172.893v-21.669h21.669v21.669
							H385.464z"/>
					</g>
				</g>
				<g>
					<g>
						<rect x="390.107" y="155.867" style="fill:#263238;" width="12.382" height="12.382"/>
					</g>
				</g>
				<g>
					<g>
						<path style="fill:#263238;" d="M411.776,233.258H380.82v30.956h30.956V233.258z M385.464,259.57v-21.669h21.669v21.669
							H385.464z"/>
					</g>
				</g>
				<g>
					<g>
						<rect x="390.107" y="242.544" style="fill:#263238;" width="12.382" height="12.383"/>
					</g>
				</g>
				<g>
					<g>
						<path style="fill:#263238;" d="M294.065,146.581v30.956h30.956v-30.956H294.065z M320.378,151.224v21.669h-21.669v-21.669
							H320.378z"/>
					</g>
				</g>
				<g>
					<g>
						<rect x="303.352" y="155.867" style="fill:#263238;" width="12.383" height="12.382"/>
					</g>
				</g>
			</g>
			<g>
				<g>
					<g>
						<path style="fill:#FF725E;" d="M285.236,168.161c0-7.329,0-14.658,0-21.987c0-2.05,0.344-3.99,1.743-5.604
							c1.563-1.803,3.706-2.498,6.025-2.498c3.987,0,7.973,0,11.959,0c3.72,0,7.44,0,11.159,0c0.89,0,0.891-1.383,0-1.383
							c-7.621,0-15.243,0-22.864,0c-1.959,0-3.833,0.289-5.512,1.393c-2.453,1.612-3.841,4.308-3.893,7.22
							c-0.064,3.617,0,7.242,0,10.86c0,3.999,0,7.998,0,11.998C283.854,169.051,285.236,169.053,285.236,168.161L285.236,168.161z"
							/>
					</g>
				</g>
			</g>
			<g>
				<g>
					<g>
						<path style="fill:#FF725E;" d="M314.098,274.668c-7.329,0-14.658,0-21.987,0c-2.05,0-3.99-0.344-5.603-1.743
							c-1.803-1.563-2.498-3.706-2.498-6.025c0-3.986,0-7.973,0-11.959c0-3.72,0-7.439,0-11.159c0-0.89-1.383-0.891-1.383,0
							c0,7.621,0,15.243,0,22.864c0,1.959,0.289,3.833,1.393,5.512c1.612,2.453,4.308,3.842,7.22,3.893c3.618,0.064,7.242,0,10.86,0
							c3.999,0,7.998,0,11.998,0C314.988,276.051,314.99,274.668,314.098,274.668L314.098,274.668z"/>
					</g>
				</g>
			</g>
			<g>
				<g>
					<g>
						<path style="fill:#FF725E;" d="M419.94,243.562c0,7.329,0,14.658,0,21.987c0,2.05-0.344,3.99-1.743,5.603
							c-1.563,1.803-3.706,2.498-6.025,2.498c-3.986,0-7.973,0-11.959,0c-3.72,0-7.44,0-11.159,0c-0.89,0-0.891,1.383,0,1.383
							c7.621,0,15.243,0,22.864,0c1.959,0,3.833-0.289,5.512-1.393c2.453-1.612,3.841-4.308,3.893-7.22c0.064-3.618,0-7.242,0-10.86
							c0-3.999,0-7.998,0-11.998C421.322,242.673,419.94,242.671,419.94,243.562L419.94,243.562z"/>
					</g>
				</g>
			</g>
			<g>
				<g>
					<g>
						<path style="fill:#FF725E;" d="M389.452,138.074c7.329,0,14.658,0,21.987,0c2.05,0,3.99,0.344,5.604,1.743
							c1.803,1.563,2.498,3.706,2.498,6.025c0,3.986,0,7.973,0,11.959c0,3.72,0,7.44,0,11.159c0,0.89,1.383,0.891,1.383,0
							c0-7.621,0-15.243,0-22.864c0-1.959-0.289-3.833-1.393-5.512c-1.612-2.453-4.308-3.841-7.22-3.893
							c-3.618-0.064-7.242,0-10.86,0c-3.999,0-7.999,0-11.998,0C388.563,136.691,388.561,138.074,389.452,138.074L389.452,138.074z"
							/>
					</g>
				</g>
			</g>
		</g>
		<g>
			<path style="fill:#EBEBEB;" d="M402.012,377.087H297.716c-9.179,0-16.62-7.441-16.62-16.62v-3.528
				c0-9.179,7.441-16.62,16.62-16.62h104.295c9.179,0,16.619,7.441,16.619,16.62v3.528
				C418.631,369.646,411.19,377.087,402.012,377.087z"/>
		</g>
		<g>
			<path style="fill:#263238;" d="M307.648,355.382l-2.308,6.179h-1.073l-1.783-4.687l-1.807,4.687h-1.073l-2.296-6.179h1.061
				l1.795,4.92l1.865-4.92h0.944l1.83,4.943l1.843-4.943H307.648z"/>
			<path style="fill:#263238;" d="M318.041,355.382l-2.308,6.179h-1.073l-1.783-4.687l-1.807,4.687h-1.073l-2.296-6.179h1.061
				l1.795,4.92l1.865-4.92h0.944l1.83,4.943l1.843-4.943H318.041z"/>
			<path style="fill:#263238;" d="M328.433,355.382l-2.308,6.179h-1.073l-1.783-4.687l-1.807,4.687h-1.073l-2.296-6.179h1.061
				l1.795,4.92l1.865-4.92h0.944l1.83,4.943l1.843-4.943H328.433z"/>
			<path style="fill:#263238;" d="M328.661,360.827c0-0.467,0.361-0.793,0.793-0.793c0.42,0,0.77,0.326,0.77,0.793
				c0,0.466-0.35,0.805-0.77,0.805C329.022,361.631,328.661,361.292,328.661,360.827z"/>
			<path style="fill:#263238;" d="M331.051,360.909l0.467-0.887c0.524,0.373,1.364,0.642,2.168,0.642
				c1.038,0,1.469-0.315,1.469-0.84c0-1.387-3.905-0.187-3.905-2.646c0-1.108,0.991-1.854,2.577-1.854
				c0.804,0,1.713,0.21,2.25,0.559l-0.478,0.887c-0.56-0.361-1.178-0.49-1.783-0.49c-0.979,0-1.457,0.361-1.457,0.852
				c0,1.457,3.916,0.268,3.916,2.669c0,1.119-1.025,1.831-2.669,1.831C332.579,361.631,331.565,361.316,331.051,360.909z"/>
			<path style="fill:#263238;" d="M337.478,353.47c0-0.407,0.327-0.734,0.758-0.734c0.432,0,0.758,0.315,0.758,0.712
				c0,0.419-0.315,0.746-0.758,0.746C337.805,354.194,337.478,353.878,337.478,353.47z M337.676,355.382h1.119v6.179h-1.119V355.382
				z"/>
			<path style="fill:#263238;" d="M344.405,361.199c-0.338,0.291-0.852,0.432-1.352,0.432c-1.247,0-1.959-0.689-1.959-1.936v-3.393
				h-1.049v-0.921h1.049v-1.353h1.119v1.353h1.772v0.921h-1.772v3.346c0,0.665,0.351,1.038,0.968,1.038
				c0.326,0,0.642-0.105,0.875-0.292L344.405,361.199z"/>
			<path style="fill:#263238;" d="M351.11,358.845h-5.013c0.141,1.084,1.015,1.807,2.238,1.807c0.724,0,1.329-0.245,1.784-0.746
				l0.617,0.723c-0.559,0.653-1.41,1.003-2.436,1.003c-1.994,0-3.323-1.317-3.323-3.159c0-1.831,1.317-3.148,3.102-3.148
				c1.783,0,3.054,1.283,3.054,3.183C351.133,358.6,351.122,358.74,351.11,358.845z M346.097,358.04h3.964
				c-0.116-1.038-0.897-1.772-1.982-1.772C347.007,356.268,346.214,356.991,346.097,358.04z"/>
			<path style="fill:#263238;" d="M361.921,355.382l-2.308,6.179h-1.073l-1.783-4.687l-1.807,4.687h-1.073l-2.296-6.179h1.061
				l1.795,4.92l1.865-4.92h0.944l1.83,4.943l1.843-4.943H361.921z"/>
			<path style="fill:#263238;" d="M368.442,358.845h-5.013c0.141,1.084,1.015,1.807,2.238,1.807c0.724,0,1.329-0.245,1.784-0.746
				l0.617,0.723c-0.559,0.653-1.41,1.003-2.436,1.003c-1.994,0-3.323-1.317-3.323-3.159c0-1.831,1.317-3.148,3.102-3.148
				c1.783,0,3.054,1.283,3.054,3.183C368.465,358.6,368.454,358.74,368.442,358.845z M363.429,358.04h3.964
				c-0.116-1.038-0.897-1.772-1.981-1.772C364.339,356.268,363.546,356.991,363.429,358.04z"/>
			<path style="fill:#263238;" d="M376.421,358.472c0,1.888-1.317,3.159-3.124,3.159c-0.909,0-1.702-0.35-2.203-1.05v0.98h-1.073
				v-8.65h1.119v3.404c0.514-0.664,1.282-0.991,2.157-0.991C375.103,355.324,376.421,356.583,376.421,358.472z M375.29,358.472
				c0-1.317-0.898-2.169-2.087-2.169c-1.177,0-2.075,0.852-2.075,2.169c0,1.317,0.898,2.18,2.075,2.18
				C374.392,360.652,375.29,359.789,375.29,358.472z"/>
			<path style="fill:#263238;" d="M377.31,360.827c0-0.467,0.361-0.793,0.793-0.793c0.42,0,0.77,0.326,0.77,0.793
				c0,0.466-0.35,0.805-0.77,0.805C377.671,361.631,377.31,361.292,377.31,360.827z"/>
			<path style="fill:#263238;" d="M379.771,358.472c0-1.843,1.364-3.148,3.265-3.148c1.107,0,2.028,0.455,2.518,1.317l-0.851,0.548
				c-0.397-0.605-1.003-0.886-1.679-0.886c-1.213,0-2.122,0.852-2.122,2.169c0,1.34,0.909,2.18,2.122,2.18
				c0.676,0,1.282-0.28,1.679-0.886l0.851,0.536c-0.489,0.862-1.41,1.329-2.518,1.329
				C381.135,361.631,379.771,360.314,379.771,358.472z"/>
			<path style="fill:#263238;" d="M386.339,358.472c0-1.843,1.364-3.148,3.218-3.148c1.854,0,3.206,1.306,3.206,3.148
				c0,1.842-1.353,3.159-3.206,3.159C387.703,361.631,386.339,360.314,386.339,358.472z M391.632,358.472
				c0-1.317-0.886-2.169-2.075-2.169c-1.188,0-2.087,0.852-2.087,2.169c0,1.317,0.898,2.18,2.087,2.18
				C390.746,360.652,391.632,359.789,391.632,358.472z"/>
			<path style="fill:#263238;" d="M404.575,358.005v3.556h-1.119v-3.428c0-1.212-0.583-1.807-1.597-1.807
				c-1.119,0-1.854,0.711-1.854,2.052v3.183h-1.119v-3.428c0-1.212-0.583-1.807-1.598-1.807c-1.119,0-1.854,0.711-1.854,2.052v3.183
				h-1.119v-6.179h1.073v0.921c0.442-0.629,1.2-0.979,2.133-0.979c0.944,0,1.737,0.373,2.146,1.142
				c0.466-0.699,1.329-1.142,2.378-1.142C403.549,355.324,404.575,356.187,404.575,358.005z"/>
		</g>
		<g>
			<g>
				<path style="fill:#263238;" d="M404.2,365.619c0,0.144-23.586,0.26-52.674,0.26c-29.098,0-52.679-0.116-52.679-0.26
					c0-0.144,23.581-0.26,52.679-0.26C380.614,365.358,404.2,365.475,404.2,365.619z"/>
			</g>
		</g>
	</g>
</g>
</svg>
